<svg height="975" viewBox="0 0 856 975" width="856" xmlns="http://www.w3.org/2000/svg" xmlns:xlink="http://www.w3.org/1999/xlink"><mask id="a" fill="#fff"><path d="m0 0h903v1005h-903z" fill="#fff" fill-rule="evenodd"/></mask><g style="opacity:.4;fill:#c4c4c4;stroke:#f0efef;stroke-linecap:round;stroke-linejoin:round;stroke-width:1.1;mask:url(#a);fill-rule:evenodd"><g transform="translate(-927 -20)"><path d="m1020.39344 154.413223-1.4918 4.46281h-2.98361l1.49181 14.876033v8.92562l-11.93443 7.438016-1.4918 4.46281-2.98361 4.46281v4.46281l4.47541 1.487604 2.98361 4.462809-1.49181 5.950414-1.4918 4.46281 1.4918 2.975206-1.4918 1.487604 1.4918 2.975206-1.4918 8.92562 7.45902 5.950413h5.96721l4.47541 4.46281 5.96721 1.487603 5.96722 5.950414 4.47541 5.950413 4.47541 2.975206h5.96721l5.96721 5.950414 1.4918 4.46281v11.900826h1.49181l1.4918 4.46281 4.47541 2.975207-2.98361 4.462809 1.49181 10.413224 4.47541 8.925619h8.95082l2.9836 7.438017 89.5082-8.92562-1.4918-5.950413 1.4918-2.975207v-4.46281l-2.98361-1.487603-1.4918-5.950413-1.4918-8.92562v-5.950413l1.4918-4.46281v-4.46281l2.98361-5.950413-2.98361-2.975207 1.4918-8.92562 1.49181-4.46281 4.47541-2.975206-2.98361-4.46281v-8.92562l4.47541-7.438016-1.4918-4.46281 4.47541-4.46281 1.4918-7.438017 1.4918-5.950413 2.98361-4.46281h-2.98361l-1.4918 4.46281-2.98361 4.46281h-1.4918v4.46281l-2.98361 2.975206 1.49181 2.975207-1.49181 1.487603h-1.4918l-4.47541 1.487604-2.98361 5.950413-2.9836 2.975206-2.98361 4.46281-2.98361-1.487603v-4.46281l2.98361-7.438016 2.98361-4.46281 4.47541-2.975207v-2.975207l-4.47541-2.975206 2.9836-8.92562h-1.4918l-4.47541 1.487603h-1.4918l2.9836-5.950413-2.9836-7.438016-4.47541-2.975207h-4.47541v-4.46281l-4.47541-1.487603-10.44262-1.487604-5.96722 1.487604-5.96721-2.975207-19.39344-4.46281-16.40984-2.975206-4.47541-5.950414-4.47541-1.487603-10.44262-2.975207-5.96722 2.975207v-2.975207l2.98361-10.413223-2.98361-1.487603-7.45901 4.46281-4.47541 1.487603-10.44262 5.950413-8.95082 1.487604z"/><path d="m1378.41584 487.545455v1.494949h1.49505v2.989899h1.49505v2.989899h1.49505l1.49505 2.989899h4.48515l1.49505 1.49495 4.48515 1.494949 4.48514-4.484848 1.49505-2.989899 5.9802 2.989899 2.9901-2.989899h5.9802l1.49505-2.989899-1.49505-2.989899 2.9901-1.49495 2.9901 1.49495 5.9802-4.484849 1.49504 1.49495 5.9802-4.484849-1.49505-1.494949 2.9901-2.989899v-1.49495h-2.9901v-2.989899l1.49505-4.484848 5.9802-8.969697 1.49505-5.979798-1.49505-1.49495 4.48515-4.484848-1.49505-1.49495 2.9901-4.484848v-5.979798l1.49505-1.49495h2.9901l2.9901 2.989899h5.98019l2.9901-2.989899v-4.484848l1.49505-1.49495v-4.484848l1.49505-2.989899 1.49505-1.49495 4.48515 1.49495 1.49505-5.979798h2.9901v-1.49495l2.9901-2.989899v-2.989899l2.9901-4.484848v-4.484849l1.49505-2.989899-1.49505-2.989899 1.49505-1.494949 17.94059 8.969697 1.49505-8.969697v-2.989899l-2.9901-1.49495-1.49505-2.989899h-1.49505l1.49505-2.989899-5.9802 1.49495-5.98019-2.989899-1.49505 1.494949-1.49505 2.989899h-4.48515l-1.49505 4.484849-2.9901 1.494949h-4.48515l-2.9901-4.484848v4.484848l-4.48515 4.484849h-4.48515l-1.49504 2.989899-2.9901 4.484848-5.9802 5.979798-4.48515-20.929293-32.89109 5.979798-7.47525-37.373737-4.48515 2.989899 4.48515 2.989899-1.49505 4.484848 1.49505 4.484849-1.49505 5.979798v7.474747l-1.49505 8.969697v5.979798l-7.47524 4.484849v4.484848l-5.9802 5.979798-2.9901-2.989899-4.48515 2.989899v2.989899l-2.9901 1.49495-1.49505 5.979798-1.49505 2.989899 1.49505 1.494949v2.989899l-2.9901 2.989899h-1.49505v-2.989899l-2.99009-1.494949-2.9901 2.989899-1.49505 4.484848v2.989899l1.49505 7.474748-2.9901 1.494949v4.484849l-8.9703 4.484848 1.49505 4.484849-1.49505 5.979798 5.9802 5.979798 1.49505 2.989899 5.9802 7.474747 7.47524 4.484849z"/><path d="m1531.5 406 2.5-3.2-3.75-4.8-1.25 3.2 1.25 1.6z"/><path d="m1584.03409 492.683673v-2.918367h1.49432v-7.295918l-2.98864-4.377551h-10.46022l1.49431 4.377551-4.48295-1.459184-2.98864 2.918367v-4.377551l-7.47159-2.918367v-4.377551h-4.48295-4.48296l-2.98863-2.918367-10.46023 1.459183v-2.918367l11.95454-1.459184 1.49432 2.918368 1.49432-4.377551 1.49432 4.377551h5.97727 1.49432v2.918367l8.96591 4.377551 2.98864-2.918367-2.98864-1.459184v-2.918367l-2.98864-1.459184h-4.48295l-10.46023-8.755102v-2.918367l10.46023 8.755102h4.48295l-2.98863-2.918368 1.49431-4.377551 5.97728 4.377551-1.49432-4.377551-4.48296-2.918367-5.97727-1.459184-2.98863-4.377551-4.48296-1.459183-5.97727-4.377551-4.48296-5.836735h-2.98863l-4.48296-1.459184 1.49432-1.459183h5.97727l10.46023 10.214285h2.98864l5.97727 5.836735v-2.918367l4.48295 2.918367v-5.836735l-1.49431-2.918367 2.98863-1.459184-4.48295-1.459183-5.97727-1.459184-1.49432-2.918367-4.48296-1.459184-2.98863 1.459184-5.97728-1.459184-4.48295-4.377551v-2.918368l-4.48296 4.377552h-5.97727v-2.918368-1.459184-8.755102l2.98864-2.918367 2.98863-1.459184v-4.377551l-1.49431-2.918367-1.49432-1.459184h-4.48296l-1.49431-2.918367h-5.97728l-2.98863-2.918367 1.49431-4.377551-4.48295-1.459184h-5.97727l-1.49432 8.755102-17.93182-8.755102-1.49432 1.459184 1.49432 2.918367-1.49432 2.918367v4.377551l-2.98863 4.377551v2.918368l-2.98864 2.918367v1.459184h-2.98864l-1.49431 5.836734-4.48296-1.459183-1.49432 1.459183-1.49432 2.918368v4.377551l-1.49431 1.459184v4.377551l-2.98864 2.918367h-5.97727l-2.98864-2.918367h-2.98864l-1.49431 1.459183v5.836735l-2.98864 4.377551 1.49432 1.459184-4.48296 4.377551 1.49432 1.459183-1.49432 5.836735-5.97727 8.755102-1.49432 4.377551v2.918367h2.98864v1.459184l-2.98864 2.918367 1.49432 1.459184-5.97727 4.377551-1.49432-1.459184-5.97727 4.377551-2.98864-1.459183-2.98864 1.459183 1.49432 2.918368-1.49432 2.918367h-5.97727l-2.98863 2.918367-5.97728-2.918367-1.49432 2.918367-4.48295 4.377552-4.48295-1.459184-1.49432-1.459184h-4.48296l-1.49432-2.918367h-1.49431v-2.918368h-1.49432v-2.918367h-1.49432l-10.46023 13.132653-10.46022 5.836735v4.377551l-2.98864 2.918367v2.918368l-7.47159 2.918367-1.49432 4.377551-16.4375 8.755102 65.75-10.214286v1.459184zm1.49432-61.285714v2.918368l-1.49432 1.459183 1.49432 2.918368-2.98864 4.377551-1.49432 4.377551v5.836734l-1.49431 5.836735 1.49431 5.836735 1.49432 1.459183 1.49432-4.377551v-8.755102l1.49432-4.377551 4.48295 1.459184v-8.755102l2.98864-5.836735-1.49432-2.918367v-4.377551z"/><path d="m1595 131.782609 52.61538-14.782609 1.46154 1.478261 1.46154 2.956522-2.92308 5.913043 4.38462 5.913044-1.46154 1.47826v2.956522l-4.38461 7.391305-1.46154 1.47826h-2.92308l-1.46154 2.956522 1.46154 4.434783v4.434782 5.913044l-1.46154 1.478261v5.913043l-1.46154 2.956522v4.434783l-1.46153 1.47826 1.46153 8.869566 1.46154 1.47826-1.46154 5.913044 1.46154 2.956522v4.434782l-1.46154 1.478261v4.434783l5.84616 4.434782-24.84616 4.434783-1.46153-1.478261-5.84616-26.608696v-2.956521l-2.92308-2.956522-2.92307 2.956522v-8.869565l-1.46154-1.478261v-1.478261l-1.46154-1.478261-1.46154-4.434783h-1.46154v-7.391304l1.46154-2.956522-2.92307-4.434782-1.46154-5.913044-1.46154-2.956522v-7.391304l-1.46154-1.478261z"/><path d="m679.07619 580 103.171429 1.488294v80.367893h4.485714l8.971429 8.929766 4.485714-1.488294h2.990476l1.495238-2.976589 5.980953 5.953177v4.464883h7.47619l8.971429 2.976589 4.485714-1.488294 4.485714 4.464883 4.485715-2.976589h8.971428v4.464883l4.485715 1.488294 2.990476 5.953178 8.971428-7.441472 1.495238 4.464883h2.990477l4.485714 2.976589 5.980952-2.976589 2.990477 7.441472 5.980952-10.418061 7.47619 4.464883 4.485715-1.488294 2.990476 2.976589 8.971428 2.976588h2.990477l1.495238-4.464883 7.47619-1.488294h2.990476l8.971429-2.976589 5.980952 1.488295 5.980953-2.976589 8.971428 2.976589 4.485715 4.464883 4.485714 2.976588 8.971428 1.488295 5.980953 2.976588 1.495238-1.488294h7.47619l1.495238 1.488294v22.324415h1.495239l1.495238 43.160535 4.485713 4.464883 4.48572 5.953177v5.953177l2.99047 2.976589v1.488294l2.99048 2.976589v4.464883l2.99047 2.976589 1.49524 1.488294v4.464883l1.49524 1.488294-1.49524 1.488294v8.929766l-1.49524 4.464883-2.99047 5.953178v4.464883l-1.49524 2.976588 2.99048 5.953177-1.49524 5.953178-2.99048 2.976588-2.99047 5.953178-1.49524 2.976588 2.99047 4.464883h-5.98095l-13.457142 7.441472h-5.980952l-7.476191 1.488294 2.990476-4.464883 1.495239-4.464883-2.990477-1.488294-2.990476 1.488294-2.990476 2.976589-5.980952-1.488295 1.495238 5.953178 2.990476 4.464883 2.990476 2.976588-1.495238 2.976589-5.980952 5.953177-2.990477-1.488294 1.495238 7.441471-8.971428 7.441472-8.971429 5.953177-10.466666 1.488295-1.495238 2.976588h-7.476191v-2.976588l-4.485714 2.976588-2.990476-2.976588-2.990477-2.976589 1.495239 7.441471-4.485715-1.488294-2.990476-2.976588-1.495238 1.488294 2.990476 5.953177 2.990476 1.488294-2.990476 2.976589 5.980953-1.488294v2.976588l-7.476191 4.464883-5.980952-7.441471-1.495238 4.464883v7.441471l-1.495239 2.976589-1.495238-5.953177-8.971428 5.953177-1.495238 2.976589 2.990476 2.976588 4.485714-2.976588-5.980952 8.929765-11.961905-1.488294-1.495238 2.976589 4.485714 1.488294 5.980953 4.464883-5.980953 14.882943-2.990476-2.976589-4.485714 2.976589-5.980953-5.953177 1.495238 5.953177-1.495238 1.488294 1.495238 1.488295 7.476191 1.488294 2.990476-1.488294-1.495238 10.41806-1.495238 1.488294v8.929766h2.990476l1.495238 8.929766-1.495238 2.976589 4.485714 7.441473 2.990477 7.44147 2.990476 1.48829-1.495238 5.95318-2.990476 2.97659-5.980953-1.48829-5.980952-5.95318h-20.933334l-7.47619-5.95318-8.971429-1.48829-5.980952-5.95318h-10.466667v-4.464883l-2.990476-1.488295-2.990476-11.906354-4.485714-5.953177-2.990477-2.976589v-7.441472l-2.990476-4.464883 1.495238-2.976588v-4.464883l-1.495238-4.464883-5.980952-2.976589-7.476191-5.953177-1.495238-4.464883-5.980952-8.929766-4.485714-2.976588-2.990477-4.464883-2.990476-10.418061-4.485714-5.953177-1.495238-4.464883-4.485714-5.953177v-7.441472l-4.485715-2.976588v-2.976589l-10.466666-5.953177v-2.976589l-5.980953-1.488294v-4.464883h-2.990476l-4.485714-7.441472h-10.466667l-8.971428-1.488294h-7.476191l-5.980952-2.976589-2.990476 4.464883-10.466667 1.488295-5.980953 8.929766-1.495238 7.441471-2.990476 4.464883-7.47619 7.441472v2.976588l-8.971429-2.976588-4.485714-4.464883h-5.980953l-4.485714-5.953177-7.47619-1.488295-8.971429-8.929766-4.485714-1.488294-4.485714-4.464883-1.495239-5.953177-2.990476-5.953177-1.495238-4.464883 1.495238-4.464883-5.980952-10.418061v-4.464882l-4.485714-7.441472-7.476191-5.953177-5.980952-1.488295-7.476191-8.929766v-2.976588l-5.980952-4.464883-5.980952-5.953177-4.485715-2.976589-4.485714-2.976589-4.485714-4.464883v-5.953177l-2.990477-1.488294-2.990476-1.488294-4.485714-4.464883v-4.464883l127.095238 5.953177z"/><path d="m1118 627 202.61579-23.771429v-10.4l1.47895-1.485714 5.91579 1.485714 1.47894-8.914285 8.87369-7.428572h7.39473l10.35264-11.885714h5.91579l1.47894-7.428571h2.9579l1.47895-4.457143 4.43684-1.485715 1.47894 2.971429h2.9579l2.95789-7.428571 7.39474-1.485715 2.9579 1.485715 4.43684-10.4 2.95789-2.971429h1.47895v-10.4l-65.07368 10.4-2.9579 2.971429-136.06316 13.371428h-8.87368l1.47895 4.457143v2.971429l-45.84737 4.457142-1.47895 1.485715-2.95789-2.971429v2.971429l1.47894 5.942857h-2.95789l1.47895 4.457143h-2.9579l2.9579 4.457143-2.9579 1.485714-1.47895 4.457143 2.9579 1.485714 1.47895 1.485714h-4.43685v2.971429l1.47895 1.485714-7.39474 4.457143 1.47895 5.942857v2.971429h-2.95789l-1.47895 5.942857-1.47895 4.457143 2.9579 5.942857h-4.43685z"/><path d="m1373.78947 594.081395-10.37719 4.360465-2.96491 4.360466-4.44737 8.72093 7.41228 2.906977 1.48246 1.453488 4.44737 2.906977 5.92982-1.453489v4.360465l4.44737 2.906977 1.48245 4.360465 1.48246 1.453489 4.44737 2.906976 1.48246 4.360466h2.96491l1.48245 2.906976 7.41228 2.906977 4.44737 7.267442h4.44737l4.44737 4.360465v2.906977l4.44737 1.453488v2.906977l2.96491 1.453488v2.906977h4.44737l7.41228 4.360465v2.906977l2.96491 4.360465 1.48246 5.813953 1.48245 2.906977h4.44737l1.48246 2.906977 4.44737 5.813953v5.813954l2.96491 4.360465 1.48246-1.453488h2.96491 2.96491l1.48246-4.360465v-4.360466l2.96491 2.906977-4.44737-7.267442-2.96491-5.813953 1.48245-1.453489 4.44737 7.267442 2.96491 1.453489-1.48245-5.813954 2.96491 2.906977 1.48246 4.360465 2.96491-2.906977-1.48246-4.360465-2.96491-1.453488-2.96491-1.453489 5.92982-1.453488 4.44737 1.453488 2.96491-2.906976v-2.906977h4.44737l4.44737-2.906977 2.96491-2.906977-2.96491-2.906976v-2.906977h2.96491l1.48246 2.906977 2.96491-2.906977 2.96491-2.906977v-5.813953l2.96492-1.453489 2.96491 1.453489 2.96491-4.360465-1.48246-2.906977 5.92983-2.906977-4.44737-1.453488v-4.360465l2.96491-4.360465v7.267441l4.44737-13.081395 4.44737-7.267442 7.41228-7.267442-42.99123-30.523256-38.54386 5.813954-1.48245-5.813954-5.92983-4.360465-2.96491 2.906977-1.48246-4.360465-44.47368 5.813953-5.92983 2.906977-4.44736 1.453489-1.48246 2.906976z"/><path d="m1670 238.857143 5.81818 22.666667v6.47619l2.90909-1.619048 2.90909-3.238095h4.36364v-3.238095-3.238095l-1.45455-3.238096 1.45455-3.238095h-2.90909l1.45454-3.238095-1.45454-3.238095 1.45454-1.619048v-3.238095h-1.45454l-1.45455-4.857143z"/><path d="m1399 299.952381 9 53.738095 7.5 36.309524 153-29.047619 1.5-4.357143 3-2.904762h7.5l1.5-2.904762 4.5-2.904762v-2.904762l10.5-8.714285v-2.904762l-9-5.809524h-3l-1.5-5.809524-4.5 1.452381-1.5-5.809524 1.5-4.357142 1.5-2.904762-3-2.904762v-2.904762l3-2.904762 3-5.809524v-2.904762l4.5-4.357143-3-2.904762h-4.5-4.5l-3-4.357142v-2.904762-4.357143l-4.5-2.904762-3 1.452381-1.5-2.904762-4.5-1.452381-136.5 27.595238-1.5-10.166667z"/><path d="m682 557.5s91.353689 2.510854 137.030534 2.26628c47.703866-.255426 143.111598-3.76628 143.111598-3.76628l1.482233 22.5 7.411168 43.5 2.964467 75-8.893401-1.5-4.446701-3-4.4467-4.5-4.446701-1.5-4.4467-1.5-5.928934 3-5.928934-1.5-8.893401 3h-2.964467l-7.411168 1.5-1.482233 4.5h-2.964467l-4.446701-1.5-4.4467-1.5-2.964467-3-4.446701 1.5-7.411167-4.5-5.928934 10.5-2.964467-7.5-5.928934 3-4.446701-3h-2.964467l-1.482233-4.5-8.893401 7.5-2.964467-6-4.446701-1.5v-4.5h-8.893401l-4.4467 3-4.446701-4.5-4.4467 1.5-8.893401-3h-7.411168v-4.5l-5.928934-6-1.482233 3h-2.964467l-4.446701 1.5-4.4467-4.5-4.446701-4.5h-4.4467v-81l-99.309645-1.5z"/><path d="m1262 335 13.35789 108 2.96843-3 4.45263 3 2.96842-3 2.96842 3h2.96842l4.45263 9 4.45263 1.5 7.42106-1.5 4.45263 4.5 2.96842 1.5 2.96842-4.5h5.93684l2.96842 3 1.48421-1.5h4.45264l1.48421-3 5.93684-4.5 2.96842 7.5 5.93684 1.5 2.96842 4.5 2.96842-1.5 5.93685-3v-4.5l2.96842-1.5-1.48421-7.5v-3l1.48421-4.5 2.96842-3 2.96842 1.5v3h1.48421l2.96842-3v-3l-1.48421-1.5 1.48421-3 1.48421-6 2.96842-1.5v-3l4.45263-3 2.96842 3 5.93685-6v-4.5l7.42105-4.5v-6l1.48421-9v-7.5l1.48421-6-1.48421-4.5 1.48421-4.5-4.45263-3 4.45263-3-8.90526-55.5-23.74737 15-10.38948 12-4.45263 1.5h-5.93684l-5.93684 3-4.45263 1.5-1.48421 3-8.90527-1.5h-2.96842l-2.96842 1.5-4.45263-1.5 8.90526-4.5h-2.96842l-2.96842 1.5-7.42105-3-7.42105-1.5-2.96843-1.5z"/><path d="m1399.80628 525.823529 187.35079-33.823529 5.94764 5.882353 5.94765 8.823529-7.43456-5.882353 1.48691 4.411765-7.43455-4.411765-2.97382 1.470589 7.43455 4.411764-2.97382 1.470589-5.94765-1.470589 4.46074 4.411765-8.92147-4.411765v2.941177l4.46073 2.941176-4.46073 2.941177h-5.94764l-1.48691-5.882353v-5.882353h-2.97383v8.823529l2.97383 4.411765v4.411765l7.43455-1.470589 2.97382-2.941176 2.97383 2.941176 4.46073-1.470588 2.97382-4.411764 2.97382 4.411764-1.48691 4.411765 2.97382 1.470588-2.97382 2.941177h4.46073l1.48692-5.882353-1.48692-4.411765h4.46074l1.48691-2.941176 2.97382 5.882352v4.411765 4.411765l-2.97382-1.470588-1.48691 1.470588-2.97382 8.823529-2.97383 2.941177h-5.94764l-2.97382-2.941177-2.97382 2.941177-1.48692-2.941177 2.97383-2.941176-8.92147 1.470588 2.97382 4.411765h-8.92146l-5.94765-1.470588 2.97382 4.411764 8.92147 1.470588h8.92147v2.941177l-5.94765 2.941176 4.46074 1.470589-4.46074 5.882353h-4.46073l-8.92147-4.411765 5.94765 7.352941 5.94764 1.470588h2.97382l2.97383-4.411764 2.97382 2.941176 7.43455-4.411765-5.94764 11.764706-4.46073-2.941176-4.46074 2.941176-7.43455 4.411765-4.46074-2.941177v4.411765l-4.46073 5.882353-1.48691-5.882353h-2.97382l1.48691 2.941177-1.48691 1.470588 2.97382 2.941176-5.94764 4.411765-4.46074 7.352941-2.97382 7.352941v4.411765l-2.97382-5.882353v13.235294h-10.40838-1.48691l-2.97382 2.941177-4.46073 1.470588-43.12042-30.882353-38.65969 5.882353-1.48691-5.882353-5.94764-4.411765-2.97383 2.941177-1.48691-4.411765-44.60733 5.882353-10.40837 4.411765-1.48691 2.941176h-1.48692l-10.40837 4.411765-41.63351 5.882353v-10.294118l1.48691-1.470588 5.94764 1.470588 1.48692-8.823529 8.92146-7.352941h7.43456l10.40837-11.764706h5.94765l1.48691-7.352941h2.97382l1.48691-4.411765 4.46073-1.470588 1.48692 2.941176h2.97382l2.97382-7.352941 7.43455-1.470588 2.97383 1.470588 4.46073-10.294118 2.97382-2.941176h1.48691z"/><path d="m1419.76923 284.951756 1.49258 10.428061 135.82456-28.304738 4.47773 1.489723 1.49258 2.979446 2.98516-1.489723 4.47773 2.979446v7.448615l2.98515 4.46917h8.95547l2.98515 2.979446 26.8664 8.938338v-1.489723l-1.49258-4.469169-2.98515-2.979446v-4.469169h1.49258l1.49257 2.979446 1.49258 2.979446 1.49258 1.489723 1.49258 11.917785 4.47773-4.46917 1.49258-2.979446-2.98516-4.469169 5.97031-7.448615-2.98515-2.979447-4.47774-29.794462h-1.49257l1.49257-29.794461-1.49257-1.489724-5.97031-26.815015v-2.979446l-2.98516-2.979447-1.49258 1.489723-1.49257 1.489724v-2.979447-5.958892l-1.49258-1.489723v-1.489723l-1.49258-1.489723-1.49258-4.46917h-1.49258v-7.448615l1.49258-2.979446-2.98515-4.469169-1.49258-5.958893-1.49258-2.979446v-4.469169-2.979447l-1.49258-1.489723v-5.958892l-41.79217 10.428062h-4.47773l-7.46289 5.958892-2.98515 4.469169-8.95547 11.917785-1.49258 2.979446v4.46917l-4.47773 4.469169-10.44804 10.428061 1.49257 1.489724h4.47774 2.98515l1.49258 1.489723-1.49258 2.979446-2.98515 4.469169h-1.49258l2.98515 2.979446v2.979447l2.98516 1.489723-1.49258 1.489723v2.979446l-2.98515 1.489723h-2.98516l-5.97031 7.448615-1.49258 2.979447-5.97031 2.979446-1.49257 1.489723h-4.47774-4.47773l-2.98515 1.489723-5.97032 2.979446h-2.98515l-2.98516-2.979446-13.43319 1.489723-2.98516 1.489723h-5.97031l-17.91093 7.448616 1.49258 2.979446v2.979446 1.489723h5.97031v2.979446l-1.49258 2.979447 2.98515 2.979446v2.979446l-2.98515 4.469169-2.98516 5.958893-5.97031 4.469169-2.98515 4.469169zm191.04993 26.815015-1.49257 1.489723-1.49258 4.46917 2.98515-1.489723 1.49258-2.979447zm2.98516-1.489723v1.489723l1.49258 1.489723 1.49257-1.489723 1.49258-1.489723 1.49258-1.489723 2.98515 1.489723 1.49258-1.489723 11.94062-5.958892h4.47774v-2.979446h2.98515l5.97031-4.46917 7.46289-1.489723 1.49258-2.979446-1.49258-1.489723-1.49258 1.489723-1.49258-1.489723 5.97031-7.448616-1.49257-1.489723-5.97031 7.448616-1.49258 1.489723-7.46289 1.489723h-2.98515l-1.49258 1.489723h-1.49258v1.489723l-5.97031 1.489723-1.49258 1.489723-2.98515-1.489723v2.979446l-1.49258-1.489723-1.49258 1.489723v2.979447l-2.98515 1.489723-1.49258 1.489723h-2.98516l-1.49257 1.489723zm-498.83996 254.616757 4.48409 4.503064v3.002042l-7.47349 10.507148-1.49469 1.501021v3.002042l20.92575-3.002042 2.98939 1.501021 1.4947 1.501021h-4.48409v3.002042l1.4947 1.501021-7.47349 4.503063 1.4947 6.004085v3.002042h-2.98939l-1.4947 6.004084-1.4947 4.503064 2.9894 6.004084h-4.48409l-2.9894 6.004085v4.503063l-4.48409 3.002042v4.503063h-4.48409v13.50919l-4.48409 3.002043v3.002042l-5.97878 6.004084 2.98939 3.002042-1.4947 1.501022-5.97878 3.002042 1.49469 7.505105-4.48408 6.004085 2.98939 3.002042-2.98939 3.002042 2.98939 3.002042v7.505106l2.98939 4.503063-2.98939 3.002042v4.503064l-101.639371 6.004084v-22.515317l-1.494697-1.501021h-7.473483l-1.494696 1.501021-2.989394-1.501021-2.989393-1.501021-2.989393-75.051055-7.473483-43.529612v-1.501021zm560.03564-285.900942-4.47773 4.46917h-2.98516l-1.49258 2.979446-4.47773 2.979446h-1.49258v-1.489723l1.49258-2.979446 1.49258-1.489723 2.98515-1.489724h2.98516z"/><path d="m1586.13793 286 26.06897 8.865672 1.44827 1.477612-1.44827 5.910447v4.432836l-2.89656 1.477612-1.44827 2.955224-1.44828 4.432836 1.44828 2.955224 5.7931 1.477612h2.89655l1.44828 7.388059-1.44828 7.38806v4.432836 4.432836l-1.44827 1.477612 1.44827 2.955223-1.44827 5.910448-1.44828 1.477612h-2.89655l2.89655 4.432836h-2.89655v2.955224l1.44828 1.477612h-2.89656l-1.44827 2.955224-2.89655 1.477612 2.89655 1.477612-2.89655 5.910447v1.477612l-1.44828 1.477612v2.955224l-2.89655 2.955224v-2.955224-7.38806h-2.89655-2.89655l-2.89656 1.477612-1.44827-2.955224h-4.34483l-1.44827-2.955223h-2.89656l-4.34482-2.955224v-4.432836l-1.44828-1.477612 1.44828-4.432836v-2.955224h1.44827l2.89655-4.432836 2.89656-2.955223v-2.955224l10.13793-8.865672v-2.955224l-8.68966-5.910448h-2.89655l-1.44828-5.910447-4.34482 1.477612-1.44828-5.910448 1.44828-4.432836 1.44827-2.955224-2.89655-2.955224v-2.955224l2.89655-2.955224 2.89655-5.910447v-2.955224z"/><path d="m1641.5 216 31.5-7.466667 4.5-1.493333 3-5.973333h1.5l1.5-2.986667 3-1.493333h3v-4.48l1.5-2.986667-6-2.986667v-4.48l-6-2.986666v-4.48l-3-7.466667-21-62.72-1.5 2.986667-4.5-1.493334-1.5 1.493334v2.986666l-1.5 4.48v4.48l1.5 2.986667-3 5.973333 4.5 5.973334-1.5 1.493333v2.986667l-4.5 7.466666-1.5 1.493334h-3l-1.5 2.986666 1.5 4.48v10.453334l-1.5 1.493333v5.973333l-1.5 2.986667v4.48l-1.5 1.493333 1.5 8.96 1.5 1.493334-1.5 5.973333 1.5 2.986667v4.48l-1.5 1.493333v4.48z"/><path d="m720.931217 392.093917v42.512921s59.2769.665315 88.915349.264992c42.717812-.576985 128.153434-3.196918 128.153434-3.196918l-2.973545-2.931926v-2.931925l-2.973545-4.397889-4.460317-2.931925-2.973545-7.329814-2.973545-1.465963v-5.863851l-2.973545-2.931926v-5.863851-11.727702l-2.973545-2.931926 2.973545-1.465963-4.460318-2.931925v-4.397889l-4.460317-4.397888 1.486772-8.795777-2.973545-2.931925v-4.397889l-2.973545-1.465963-1.486772-4.397888-2.973545-1.465963v-5.863851l-1.486773-7.329814h-5.94709l-2.973545-4.397888v-2.931926h-4.460317l-1.486773-1.465963-4.460317-1.465962h-4.460317l-4.460318-4.397889-7.433862 1.465963h-2.973545-7.433863l-2.973545 2.931926h-4.460317l-11.89418-7.329814s-72.872879.237708-109.309319-.37642c-21.547687-.363181-64.643062-2.555506-64.643062-2.555506l-2.973545 82.093917z"/><path d="m972.671653 406.825744c-17.557218 1.002967-52.671653 1.536461-52.671653 1.536461v2.944882l2.929032 1.472441 2.929033 7.362204 4.393548 2.944882 2.929032 4.417323v2.944882l2.929032 2.944882 7.322581 4.417323 2.929032-1.472441 2.929033 1.472441 1.464516 4.417322-2.929033 1.472441-1.464516 2.944882-2.929032 4.417323 2.929032 2.944882 4.393549 2.944882v2.944882l2.929032 4.417323h4.393548l2.929033 1.472441 2.929032 89.818897 1.464516 20.614173 147.91613-10.307086 4.39355 4.417323v2.944882l-7.32258 10.307086-1.46452 1.472441v1.472441 1.472441l20.50323-2.944882 1.46451-4.417323 2.92903-1.472441-2.92903-4.417323h2.92903l-1.46451-4.417322h2.92903l-1.46452-5.889764v-2.944882l2.92904 2.944882 1.46451-1.472441 1.46452-4.417323v-1.472441l4.39355 2.944882 1.46451-4.417323 1.46452-4.417323-1.46452-2.944882 1.46452-5.889763h-2.92903l-2.92903-2.944882v2.944882l-4.39355-1.472441v-2.944882l-4.39355-5.889764v-1.472441l1.46451-4.417323v-1.472441l-2.92903-2.944882v-5.889763l-5.85806-2.944882-2.92903-4.417323h-1.46452l-5.85806-2.944882-2.92904-1.472441-11.71613-8.834646v-5.889763l4.39355-11.779528v-4.417323l1.46452-2.944882-4.39355-4.417322h-5.85806l-4.39355 4.417322-2.92904-2.944881-2.92903-7.362205v-4.417323l-2.92903-4.417323-8.7871-4.417323-1.46451-2.944882-8.7871-7.362204-1.46452-2.944882-1.46451-2.944882-1.46452-2.944882-2.92903-8.834646 1.46452-5.889763 1.46451-2.944882-10.25161-8.834646s-50.803845 4.374643-76.205767 5.825744z"/><path d="m1187.5 620 1.5 2.985507 3 1.492754v103 25.376811l9 59.710145-1.5 4.478261-6-2.985507-1.5 1.492754h-4.5l-6-2.985508-6 4.478261-4.5 2.985508-4.5-2.985508v2.985508l-1.5 4.47826-7.5 1.492754v-2.985507l-3-7.463768-4.5-4.478261-1.5-4.478261 1.5-10.449275v-2.985508l-67.5 5.971015v-5.971015l-1.5-5.971014h3l1.5-2.985507-1.5-5.971015 3-4.478261 3-10.449275 9-7.463768-1.5-5.971015h1.5l3-8.956522-6-4.47826v-4.478261l-3-4.478261 3-1.492754-1.5-1.492753-1.5-2.985508 3-4.47826-4.5-2.985508v-4.478261l3-2.985507-3-4.478261v-7.463768l-3-2.985507 3-2.985507-3-2.985508 4.5-5.971014-1.5-7.463768 6-2.985507 1.5-1.492754-3-2.985507 6-5.971015v-2.985507l4.5-2.985507v-13.434783h4.5v-4.478261l4.5-2.985507v-4.478261z"/><path d="m1060.36424 285.225-161.695366 8.775-1.483444-71.6625-2.966887-4.3875-5.933775-1.4625-4.450331-8.775 4.450331-2.925 2.966888-4.3875 1.483443-4.3875-1.483443-14.625-4.450331-5.85-1.483444-5.85-1.483444-10.2375v-2.925l-1.483444-7.3125v-11.7l-1.483443-8.775-8.900663-19.0125v-16.0875l1.483444-4.3875-4.450331-11.7 60.821192-2.925v-14.625l5.933775 1.4625 2.966887 4.3875 2.966888 8.775v5.85l4.450331 4.3875h8.900662l1.483444 1.4625 11.867549 1.4625 1.483444 4.3875 4.450331-1.4625h5.933775l1.483444-2.925 4.450331-1.4625h8.900662l2.966888 1.4625h5.933777v2.925h-2.96689l1.48344 1.4625h5.93378l1.48344 5.85 2.96689 1.4625 1.48344 1.4625 1.48345-5.85h5.93377l1.48345 4.3875h2.96688 4.45033l1.48345 4.3875h2.96689l1.48344 2.925 7.41722-2.925 2.96689-1.4625 8.90066-5.85 4.45033 5.85 5.93377-1.4625 13.351-1.4625 4.45033 4.3875 2.96689-1.4625h5.93377l-10.38411 7.3125-16.31788 5.85-10.3841 8.775-11.86755 13.1625-11.86755 11.7-7.41722 4.3875-1.48344 4.3875-1.48345 2.925h-2.96689l1.48345 14.625v8.775l-4.45033 2.925-7.41722 4.3875-1.48345 4.3875-2.96688 4.3875v4.3875l4.45033 1.4625 2.96689 4.3875-1.48345 5.85-1.48344 4.3875 1.48344 2.925-1.48344 1.4625 1.48344 2.925-1.48344 8.775 7.41722 5.85h5.93377l4.45033 4.3875 5.93378 1.4625 5.93377 5.85 4.45033 5.85 4.45034 2.925h5.93377l5.93377 5.85 1.48345 4.3875z"/><path d="m1203.24294 336 63.89265-8.921053v2.973685l41.60452-7.434211v-4.460526l5.94351-7.434211v-10.407895l2.97175-5.947368 4.45762-1.486842-1.48587-5.947368 4.45763-2.973685-1.48588-2.973684 2.97175-1.486842 4.45763 4.460526 2.97175-17.842105-5.9435-7.43421-4.45763-14.868422-4.45763-11.894736-2.97175-5.947369h-5.9435l-5.9435 4.460527h-2.97176l-4.45762 11.894736h-2.97175l-1.48588 4.460527h-4.45763l-7.42938-1.486842 1.48588-11.894737 5.9435-2.973684 2.97175-2.973685v-5.947368l2.97176-2.973684 2.97175-2.973685-1.48588-16.355263-2.97175-5.947368-4.45763-2.973684 1.48588-4.460527 4.45763 1.486842-2.97176-4.460526h-2.97175v-5.947368h-5.9435l-4.45763-1.486842-4.45762-1.486842h-8.91526l-1.48587-4.460527-4.45763-1.486842h-4.45763l-8.91525-2.973684-4.45763 2.973684-4.45763 4.460526v4.460527l1.48588 1.486842 5.9435 1.486842-1.48587 1.486842-8.91526 2.973684-4.45763 2.973684 1.48588 7.434211v8.921053l-2.97175 5.947368-2.97175-1.486842-1.48588-2.973684v-7.434211-5.947368l-4.45763 8.921052-1.48587 2.973685h-2.97175l-4.45763 2.973684 1.48588 4.460526-5.94351 2.973684 2.97175 4.460527v10.407894l-2.97175 5.947369-4.45762 5.947368 4.45762 5.947369v4.460526l-2.97175 5.947368 2.97175 7.434211 4.45763 5.947368 1.48588 1.486842h2.97175l-1.48588 4.460527 2.97175 7.43421 1.48588 4.460527v19.328947l-4.45763 10.407895-2.97175 7.43421-1.48588 7.434211zm-41.60452-132.328947 8.91525-20.81579 4.45763-7.43421 1.48588-8.921053 2.97175 4.460526v4.460527l4.45762-5.947369 5.94351-2.973684 1.48587 5.947368-4.45762 4.460527 1.48587 1.486842 7.42938-8.921053 2.97175-4.460526 5.9435-2.973684 4.45763 1.486842 7.42938-2.973684 2.97175-4.460527 10.40113-1.486842 8.91525 2.973684 4.45763 4.460527 2.97175-8.921053h7.42938l11.88701 1.486842 4.45762-1.486842h4.45763 5.9435v-2.973684l-2.97175-2.973684-2.97175 4.460526h-5.9435l-4.45763-2.973684-2.97175-1.486842-2.97175-1.486842v-2.973685l1.48587-4.460526-1.48587-5.947368-4.45763 2.973684-5.9435 2.973684h-2.97175l-1.48588-1.486842-4.45763 1.486842-7.42937-1.486842v-10.407895l-5.94351 1.486842-8.91525 5.947369-10.40113-1.486842-8.91525 2.973684-8.91526 7.43421-2.97175 2.973685-4.45763-1.486843-2.97175 2.973685-4.45763-4.460527-7.42937 4.460527-4.45763-1.486842-8.91526-11.894737-8.91525-1.486842-5.9435 1.486842-8.91526 5.947368-1.48587-10.407895 5.9435-7.43421 7.42938-7.434211-1.48588-1.486842 8.91526-2.973684h-4.45763l-8.91525 1.486842-8.91526 5.947369-2.97175 4.460526-4.45763 1.486842-2.97175 4.460526-2.97175 4.460527h-4.45763l-5.9435 5.947368-13.37288 2.973684-2.97175 4.460527-4.45763 2.973684-10.40113 4.460526 5.9435 1.486842 4.45763 5.947369 35.66102 7.43421 5.9435 2.973684 7.42938-1.486842 8.91525 1.486842 4.45763 1.486842v4.460527h4.45763l4.45762 2.973684 2.97176 7.43421-2.97176 5.947369h1.48588l4.45763-1.486842h1.48587l-2.97175 8.921052z"/><path d="m1613 250.682927h1.48101l19.25317-4.390244 1.48101 1.463415 31.10127-8.780488v1.463414l11.8481-4.390244 1.48101 4.390244h1.48101 1.48101v4.390244l4.44304 1.463415 1.48102-4.390244h1.48101v2.926829l-1.48101 2.92683 1.48101 5.853658 1.48101 1.463415 1.48101-2.92683 1.48102-1.463414 1.48101 1.463414 1.48101-2.926829v-2.926829h1.48101l2.96203-2.926829v-2.92683h2.96202l1.48102 2.92683v4.390244h2.96202l1.48102-2.92683 1.48101-1.463414 4.44304-1.463415 8.88607-4.390244v-4.390244l-1.48101-1.463414-1.48101-2.92683-2.96203-4.390244h-1.48101l1.48101 2.92683s3.42006 3.193338 4.38958 4.790007c.51149.842355.05346 2.527066.05346 2.527066l-4.44304 1.463414-1.48101 1.463415-1.48101 1.463415h-2.96203-5.92405l-1.48101-2.92683v-4.390243l-2.96203 1.463414-4.44304-1.463414 1.48102-4.390244-5.92405-5.853659-2.96203 1.463415-1.48101 1.463414-2.96203-1.463414-1.48101-1.463415v-2.926829l1.48101-1.463415v-1.463414l2.96203-1.463415-1.48101-1.463415v-2.926829l5.92405-1.463415 1.48101-2.926829-2.96203 1.463415-2.96202-1.463415-1.48101-1.463414v-2.92683h-2.96203l1.48101-2.926829h-2.96202l-2.96203 1.463415s-.98734 1.951219-1.48101 2.926829h-1.48101l-2.96203 5.853658-4.44304 1.463415-31.10126 7.317073-25.17722 4.390244zm91.82278 4.390244v2.926829l2.96203-2.926829 5.92405-1.463415-4.44304-2.926829-1.48101 2.926829zm19.25317-1.463415 1.48101 1.463415h2.96203l1.48101-1.463415-1.48101-2.926829-1.48102 2.926829zm-37.02532-4.390244-1.48101 2.926829 1.48101 4.390244 1.48102-1.463414z"/><path d="m1446 385.829787 4.48544 20.851064 5.98058-5.957447 2.99029-4.468085 1.49515-2.978723h4.48543l4.48544-4.468085v-4.468085l2.99029 4.468085h4.48544l2.99029-1.489362 1.49515-4.468085h4.48543l1.49515-2.978724 1.49514-1.489361 5.98059 2.978723 5.98058-1.489362-1.49515 2.978724h1.49515l1.49514 2.978723 2.9903 1.489362v2.978723h5.98058l4.48543 1.489362-1.49514 4.468085 2.99029 2.978724h5.98058l1.49515 2.978723h4.48544l1.49514-2.978723 4.48544 4.468085-1.49515 2.978723v2.978723l-1.49514 2.978724v2.978723l-2.99029 4.468085v4.468085h2.99029v-4.468085l2.99029 1.489362 1.49514-1.489362 2.99029 4.468085 2.9903 1.489362-1.49515-4.468085 2.99029 2.978723 1.49515 2.978724 4.48543-1.489362 2.9903 1.489362 1.49514 1.489362 2.99029-1.489362 2.99029 4.468085 1.49515-2.978723-4.48544-4.468086h-1.49514l-4.48544-2.978723-2.99029-1.489362-2.99029-4.468085v-5.957447l2.99029 5.957447 2.99029 2.978724 5.98058 2.978723v-1.489362l-5.98058-5.957446v-4.468086l-2.99029-2.978723v-2.978723-4.468085l-2.99029-1.489362 2.99029-1.489362-4.48544-1.489362 4.48544-4.468085-5.98058-4.468085 2.99029-1.489361 1.49514 1.489361v-2.978723l2.99029-2.978724-1.49514-1.489361 2.99029-1.489362 1.49515 2.978723v-5.957446l1.49514 2.978723 2.99029-1.489362-1.49514-2.978723 1.49514-2.978723 2.99029-2.978724 1.49515 4.468085 2.99029-2.978723v2.978723l-2.99029 2.978724 4.48544 1.489361-1.49515 1.489362-5.98058 1.489362-2.99029 4.468085v5.957447l2.99029-1.489362h1.49514l-1.49514 5.957447-1.49515 1.489361h-2.99029v2.978724l5.98058-2.978724 1.49515 2.978724-1.49515 2.978723h2.99029l-1.49514 2.978724-1.49515 1.489361 4.48544 2.978724 2.99029-1.489362 1.49515 2.978723-8.97088 1.489362 1.49515 2.978724-1.49515 2.978723 5.98059 1.489362 2.99029 4.468085v-4.468085h2.99029l2.99029-4.468085v4.468085 2.978723h1.49515l-1.49515 2.978723h2.99029l1.49515 2.978724-1.49515 4.468085 7.47573-1.489362 7.47573-2.978723v-4.468085l2.99029-1.489362-1.49515-4.468085 4.48544-1.489362v-2.978723l-2.99029-4.468085-17.94175 4.468085-13.45631-50.638298z"/><path d="m1686.41176 5.88976378-13.23529 33.86614172 1.47059 10.3070866-2.94118 4.4173229v2.9448819l-1.47059 4.4173228 2.94118 1.4724409-1.47059 1.472441v5.8897638h2.94118l-2.94118 5.8897637v4.4173229l-4.41176 5.8897637-1.47059 4.4173229 2.94118 2.9448819-1.47059 2.9448819-2.94118-1.472441v1.472441 5.8897636l-4.41176-4.4173227-2.94118 4.4173227 23.52941 69.204725v4.417322l5.88235 2.944882v4.417323l5.88236 2.944882 1.47059-7.362205-1.47059-5.889764 4.41176-2.944881 1.47059-1.472441-1.47059-5.889764 4.41177-1.472441-2.94118-5.889764 5.88235-7.362205h2.94118v4.417323l1.47059-2.944882 2.94117 2.944882 1.47059-2.944882-7.35294-8.834645 7.35294 5.889763v-7.362204l4.41177 7.362204 2.94117-10.307086 4.41177 2.944882 2.94118-2.944882 1.47058-5.889764-1.47058-10.307087 1.47058-2.944881 2.94118-4.417323 1.47059 2.944882 2.94117 4.417322h4.41177l1.47059-5.889763 4.41176 1.472441 2.94118 2.944882 2.94118-8.834646-2.94118-2.944882 5.88235 2.944882 4.41177-2.944882 4.41176-8.8346457h2.94118l5.88235-2.9448819 7.35294-5.8897638 1.47059-5.8897637-4.41176 1.4724409v-5.8897638l-5.88236-4.4173228-2.94117 1.4724409-5.88236-2.9448819-1.47059-2.9448818-1.47058-4.4173229 1.47058-4.4173228-2.94117-1.472441h-7.35294l-2.94118-1.4724409-1.47059-8.8346457-14.70588-42.70078738-7.35294-2.94488189-4.41177-4.41732283-5.88235 1.47244094-2.94118 4.41732284-5.88235 2.94488189-5.88235 2.94488193-4.41177-1.472441-1.47058-5.88976377z"/><path d="m995 719.018692 98.40625-6.018692 4.40625 3.009346-2.9375 4.514018 1.46875 3.009346 1.46875 1.504673-2.9375 1.504673 2.9375 4.514019v4.514018l5.875 4.514019-2.9375 9.028038h-1.46875l1.46875 6.018691-8.8125 7.523365-2.9375 10.53271-2.9375 4.514019 1.46875 6.018691-1.46875 3.009346h-2.9375l1.46875 6.018692v6.018691l66.09375-6.018691v3.009345l-1.46875 10.532711 1.46875 4.514018 4.40625 4.514019 2.9375 9.028037v1.504673h-4.40625l-7.34375-1.504673-4.40625-4.514018h-5.875l-7.34375 9.028037 1.46875 4.514019 5.875 1.504673 5.875 1.504673 8.8125-6.018692h5.875l-1.46875 3.009346-4.40625 1.504673 1.46875 3.009345h2.9375l2.9375 3.009346 2.9375-3.009346 2.9375-6.018691 2.9375 6.018691 1.46875 3.009346h-4.40625l-2.9375 6.018692-4.40625-1.504673 1.46875 4.514019-2.9375 1.504673 10.28125 7.523364 11.75 3.009346 5.875 7.523364-4.40625 4.514019-4.40625-4.514019-1.46875 1.504673-4.40625-4.514018-5.875-1.504673-1.46875-3.009346-4.40625 1.504673-4.40625-6.018692-8.8125-3.009346h-4.40625l1.46875 3.009346 4.40625 3.009346v4.514019 4.514018l-2.9375 4.514019-2.9375-3.009346v-3.009346l-5.875-3.009345-4.40625 1.504673-2.9375 1.504672-1.46875 6.018692-10.28125-1.504673h-4.40625l-7.34375-1.504673v-3.009346l5.875 1.504673-1.46875-3.009345-4.40625-4.514019 1.46875-4.514019-1.46875-1.504673-2.9375 4.514019-5.875-1.504673-1.46875-1.504673-1.46875-3.009346-1.46875 1.504673-1.46875-4.514018-7.34375 1.504672v-4.514018h-4.40625l-5.875 3.009346-2.9375 1.504672 4.40625 4.514019-5.875 4.514019h-14.6875l-13.21875-7.523365-8.8125-1.504673-5.875 1.504673-11.75 3.009346h-2.9375l-1.46875-3.009346 4.40625-1.504673v-4.514018-3.009346-3.009346l1.46875-6.018691-2.9375-6.018692 1.46875-3.009346v-4.514019l2.9375-6.018691 1.46875-4.514019v-9.028037l1.46875-1.504673-1.46875-1.504673v-4.514019l-4.40625-4.514018v-4.514019l-2.9375-3.009346v-1.504673l-2.9375-3.009346v-6.018691l-4.40625-6.018692-4.40625-4.514018z"/><path d="m1137 562 46.02454-4.360465v-2.906977l-1.48466-4.360465h8.90797l136.58896-13.081395 2.96932-2.906977 16.33129-8.72093 1.48467-4.360465 7.42331-2.906977v-2.906977l2.96932-2.906977v-4.360465l10.39264-5.813953 10.39264-13.081396v-1.453488h-4.45399l-7.42331-4.360465-5.93865-7.267442-1.48466-2.906977-5.93865-5.813953 1.48466-5.813954-1.48466-4.360465-2.96933-4.360465-5.93865-1.453488-2.96932-7.267442-5.93865 4.360465-1.48467 2.906977h-4.45399l-1.48466 1.453488-2.96932-2.906977h-5.93865l-2.96933 4.360465-2.96932-1.453488-4.45399-4.360465-7.42331 1.453488-4.45399-1.453488-1.48466-2.906977-2.96933-5.813953h-2.96932l-2.96933-2.906977-2.96932 2.906977-4.45399-2.906977-4.45399 4.360465 1.48466 2.906977v2.906977l2.96933 1.453488v4.360465h-4.45399l-7.42331 4.360465-2.96933-1.453488-5.93865 1.453488 1.48466 7.267442-2.96932 4.360465h-2.96933v5.813954l-2.96932 1.453488h-2.96933l-1.48466 5.813954v5.813953l-4.45399 2.906977-4.45398-2.906977-4.45399-1.453488-1.48467-2.906977-2.96932 4.360465-2.96933 5.813954-1.48466 4.360465-2.96932-1.453489-4.45399-2.906976-4.45399 1.453488-1.48466 1.453488-2.96933 5.813954-2.96932-2.906977-7.42331-2.906977-4.45399 2.906977-1.48466-2.906977v4.360465l-1.48467 1.453489-1.48466-2.906977-2.96932 1.453488-4.45399-1.453488v5.813953h-4.45399l-1.48466 2.906977-1.48467 4.360465 2.96933 2.906977v2.906977l-11.8773 4.360465-1.48466 4.360465 2.96932 4.360465 1.48466 2.906977-2.96932 1.453488h-1.48466l-10.39264-4.360465h-4.45399l-2.96932 2.906977-2.96933 4.360465 1.48466 1.453488-1.48466 1.453489h2.96933l-1.48467 5.813953 1.48467 2.906977-2.96933 8.72093-4.45399-2.906976v1.453488z"/><path d="m832.719664 437.818707c-38.575217.512601-115.725652.085633-115.725652.085633l-2.994012 120.530112s81.006921 1.963254 121.510381 1.492711c42.829873-.49757 128.489619-4.397051 128.489619-4.397051l-2.994012-88.582371-2.994012-1.45217h-4.491018l-2.994012-4.35651v-2.904341l-4.491018-2.90434-2.994012-2.90434 2.994012-4.35651 1.497006-2.90434 2.994012-1.45217-1.497006-4.35651-2.994012-1.45217-2.994012 1.45217-7.48503-4.35651s-68.558148 2.363195-102.837222 2.818707z"/><path d="m920.928058 410.546512s42.884403-.913248 64.326605-2.096615c22.452287-1.239113 67.356847-5.170827 67.356847-5.170827l10.47482 8.72093 1.4964-1.453488-1.4964-5.813954 8.97842-5.813953v-5.813954l5.98561-5.813953-1.4964-4.360465-5.98561-5.813954 2.9928-8.72093 11.97122-2.906977 8.97842-5.813953v-5.813954l4.48921-4.360465-1.4964-11.627907-8.97842-2.906977v-4.360465l-7.48201-5.813953-2.99281-7.267442h-8.97842l-4.48921-8.72093-1.4964-10.174419 2.99281-4.360465-4.48921-2.906977-1.4964-4.360465-169.09353 8.72093v2.906977l2.992806 2.906977-1.496403 4.360465 2.992806 2.906977-1.496403 11.627907-2.992806 4.360465 4.489209 10.174418h2.992805l1.496403 7.267442v5.813954l2.992806 1.453488 1.496403 4.360465 2.992806 1.453488v4.360466l2.992805 2.906976-1.496402 8.720931 4.489208 4.360465v4.360465l4.489209 2.906977-2.992806 1.453488 2.992806 2.906977v17.44186l2.992806 2.906977z"/><path d="m1177.48571 341.386555 4.45715 2.97479h4.45714l13.37143-7.436975 63.88571-8.92437v2.97479l13.37143 107.092437-1.48571 1.487395 1.48571 2.97479v2.97479l2.97143 1.487395v4.462185h-4.45714l-7.42857 4.462184-2.97143-1.487395-5.94286 1.487395 1.48571 7.436975-2.97142 4.462185h-2.97143v5.94958l-2.97143 1.487395h-2.97143l-1.48571 5.94958v5.94958l-4.45715 2.974789-4.45714-2.974789-4.45714-1.487395-1.48572-2.97479-2.97143 4.462185-1.48571 2.974789-1.48571 2.97479-1.48572 4.462185-2.97143-1.487395-4.45714-2.97479-4.45714 1.487395-1.48572 1.487395-2.97143 5.94958-2.97142-2.97479-7.42858-2.97479-4.45714 2.97479-1.48571-2.97479v4.462185l-1.48572 1.487395-1.48571-2.97479-2.97143 1.487395-4.45714-1.487395v2.97479 2.97479h-4.45715l-1.48571-4.462185 1.48571-1.487395v-5.94958l2.97143-2.97479-2.97143-2.974789 1.48572-2.97479 2.97143-1.487395 2.97143-5.94958 2.97142-2.97479v-4.462185l2.97143-4.462185v-2.97479l-1.48571-4.462185v-2.97479l-2.97143-4.462184-2.97143-2.97479 2.97143-1.487395-1.48571-4.462185 2.97142-2.97479z"/><path d="m1163.58696 312-88.04348 8.807692 7.33695 5.871795v4.403846l8.80435 2.935898 1.46739 11.74359-4.40217 4.403846v5.871795l-8.80435 5.871794-11.73913 2.935898-2.93478 8.807692 5.86956 5.871795 1.4674 4.403846-5.86957 5.871795v5.871795l-8.80435 5.871795 1.46739 5.871795-1.46739 1.467948-1.46739 2.935898-1.46739 5.871795 2.93478 8.807692 4.40218 8.807692 8.80434 7.339744 1.4674 2.935897 8.80434 4.403846 2.93479 4.403847v4.403846l2.93478 7.339743 2.93478 2.935898 4.40218-4.403846h5.86956l4.40217 4.403846-1.46739 1.467949v5.871794l-4.40217 11.74359v5.871795l11.73913 8.807692 8.80435 4.403846h1.46739l2.93478 4.403847 5.86957 2.935897v5.871795l2.93478 2.935897v1.467949l-1.46739 4.403846v1.467949l4.40217 5.871795v2.935897l4.40218 1.467949v-2.935897l2.93478 2.935897 1.46739-1.467949-1.46739-1.467948 2.93478-4.403847 2.93478-2.935897h4.40218l10.27174 4.403846h1.46739l2.93478-1.467949-1.46739-2.935897-2.93478-4.403846 1.46739-4.403846 4.40217-1.467949 7.33696-2.935897v-2.935898l-2.93478-2.935897 1.46739-4.403847 1.46739-2.935897-1.46739-4.403846 1.46739-1.467949v-5.871795l2.93478-2.935897-2.93478-2.935898 1.46739-2.935897 2.93478-1.467949 2.93478-5.871795 2.93479-2.935897v-4.403846l2.93478-4.403846v-2.935898l-1.46739-4.403846v-2.935897l-2.93478-4.403847-2.93479-2.935897 2.93479-1.467949-1.4674-4.403846 2.93479-2.935897-10.27174-95.416667-4.40218-4.403846-1.46739-4.403846v-4.403846l-4.40217-2.935898-1.46739-4.403846-1.46739-1.467949z"/><path d="m1363.53226 599-86.53226 11.84 26.85484 82.88 5.96774 13.32 4.47581 5.92v5.92l4.4758 1.48-4.4758 4.44v7.4l-2.98387 2.96v7.4l5.96774 7.4-1.49194 14.8 4.47581 4.44 1.49193 4.44 2.98388 4.44 1.49193 5.92 88.02419-5.92 8.95162-1.48v2.96l2.98387 4.44h4.4758l1.49194-8.88-2.98387-1.48v-5.92l2.98387-2.96 7.45968 1.48h8.95161l-2.98387-4.44 2.98387-5.92h-2.98387l1.49194-2.96-1.49194-2.96v-1.48-4.44h2.98387v4.44l2.98387-5.92-7.45968-1.48v-2.96l7.45968 1.48-1.49193-2.96 4.4758-4.44-4.4758 1.48-2.98387-2.96 5.96774-1.48-2.98387-2.96 1.49193-2.96-2.98387-1.48h5.96774l1.49194-2.96-4.47581-1.48 1.49194-2.96 5.96774 1.48v-2.96l2.98387-2.96-4.47581-1.48-2.98387-1.48-1.49193 1.48-2.98387-4.44v-5.92l-4.47581-5.92-1.49194-2.96h-4.4758l-1.49194-2.96-1.49193-5.92-2.98387-4.44v-2.96l-7.45968-4.44h-4.47581v-2.96l-2.98387-1.48v-2.96l-4.47581-1.48v-2.96l-4.4758-4.44h-4.47581l-4.4758-7.4-7.45968-2.96-1.49194-2.96h-2.98387l-1.49193-4.44-4.47581-2.96-1.49194-1.48-1.49193-4.44-4.47581-2.96v-4.44l-5.96774 1.48-4.47581-2.96-1.49193-1.48-4.47581-1.48-2.98387-1.48 2.98387-5.92 1.49194-2.96z"/><path d="m1320.26471 773.922078-91.78432 10.409091-1.48039 7.435065 4.44118 4.461039 4.44117 1.487013v5.948052l1.4804 2.974026h2.96078l-2.96078 5.948052 1.48039 1.487013 7.40196-8.922078-1.48039-4.461039 4.44117 2.974026 1.48039-2.974026h2.96079l-1.48039 2.974026 4.44117 1.487013-2.96078 1.487013 13.32353-1.487013 2.96078-4.461039h2.96079l7.40196-1.487013 4.44117 4.461039-7.40196 1.487013 11.84314 2.974026 8.88235 4.461039-4.44117-4.461039 4.44117-2.974026 1.4804 2.974026 4.44117-4.461039 1.48039 2.974026-4.44117 4.461039 2.96078 1.487013h4.44118l2.96078 2.974026-2.96078 1.487013-4.44118-1.487013 7.40196 4.461039 4.44118 4.461038v4.461039h4.44118l5.92156-2.974026 5.92157-4.461038 1.4804 2.974025 10.36274-8.922077h5.92157l-5.92157-2.974026 5.92157-4.461039 4.44118-1.487013h7.40196l5.92156 2.974026h4.44118l5.92157 5.948052 1.48039 2.974026 5.92157 1.487013 1.48039 5.948051 2.96079 2.974026 4.44117 1.487013 2.96079 4.461039 4.44117 2.974026h8.88236l2.96078 7.435065 4.44118 2.974026v5.948052l1.48039 2.974026v14.87013l-2.96078 7.435065 2.96078 2.974026-1.48039 10.409091 5.92157 4.461039 1.48039-5.948052-4.44118-2.974026 1.48039-4.461039 5.92157 2.974026v4.461039l2.96079-4.461039 1.48039 2.974026 1.48039 2.974026-5.92157 8.922078-1.48039 5.948052 4.44118 4.461039 1.48039 4.461039 4.44118 5.948052 2.96078 4.461039 4.44118 4.461039h4.44117l-5.92157-5.948052h4.44118l5.92157-1.487013 1.48039 1.487013-2.96078 1.487013 1.48039 10.40909 1.48039 4.461039 2.96079-1.487013v-2.974026l5.92157-4.461038v2.974026l-2.96079 2.974025-2.96078 4.461039 2.96078 1.487013 1.48039-1.487013 2.96079 5.948052 1.48039 7.435065 4.44118 5.948052 11.84313 2.974026 4.44118 2.974026v2.974026l1.48039 1.487013 4.44118 4.461039 2.96078 5.948052 7.40196 1.487013 2.96079 2.974026-2.96079 2.974026-7.40196-4.461039v4.461039l2.96079 2.974026 7.40196-1.487013 1.48039-2.974026 5.92157 1.487013 4.44117-5.948052h4.44118l4.44118-7.435065-2.96079-2.974026 2.96079-10.409091 1.48039-8.922078v-7.435065-8.922078l-1.48039-1.487013v-11.896103l-1.48039-8.922078-2.96079-2.974026v-2.974026l-5.92157-5.948052h-2.96078l-1.48039-2.974026 4.44117 1.487013-2.96078-5.948052-1.48039-1.487013-5.92157-10.409091-5.92157-8.922078-7.40196-11.896104-7.40196-10.409091-2.96079-10.409091 2.96079-1.487013 1.48039 5.948052h4.44118l-13.32353-16.357143-13.32353-17.844155-8.88236-20.818182-1.48039-2.974026-2.96078-5.948052-1.48039-7.435065-4.44118-2.974026v-4.461039h2.96078v-2.974026h-11.84313l-7.40196-1.487013-2.96079 2.974026v5.948052l2.96079 1.487013-1.4804 8.922078h-4.44117l-2.96079-4.461039v-2.974026l-8.88235 1.487013-87.34314 5.948052-1.48039-5.948052z"/><path d="m1579.30435 409 17.73913-4.384615 2.95652-1.461539v-1.461538l-1.47826-2.923077-4.43478 1.461538 1.47826-2.923077v-2.923077l2.95652-1.461538-2.95652-1.461539-2.95652-1.461538-4.43479-2.923077v-2.923077l-5.91304-2.923077v-5.846154l-8.86957-7.307692v-4.384615l-1.47826-1.461539v-2.923077l2.95653-2.923077 1.47826-4.384615h-5.91305l-2.95652 2.923077-1.47826 4.384615z"/><path d="m1618 249.222222 4.38462 30.555556 2.92307 3.055555-5.84615 7.638889 2.92308 1.527778h4.38461l7.30769-9.166667 4.38462-1.527777 2.92308-4.583334h2.92307l7.30769-3.055555 7.3077-1.527778-1.46154-3.055556 4.38461 1.527778 2.92308-1.527778 4.38462-1.527777 2.92307-1.527778h2.92308v-6.111111l-5.84615-22.916667-30.69231 9.166667-1.46154-1.527778z"/><path d="m1188 619.47482 1.46067 2.992806 2.92135 1.496403v128.690647l8.76405 59.856115h5.84269l2.92135 2.992806h1.46068v-8.978417l1.46067-8.978417 5.8427 4.489208-1.46068 5.985612 2.92135 2.992805 5.8427 5.985612 4.38202-1.496403-1.46067-2.992806h2.92134l4.38203-5.985611-1.46068-2.992806v-5.985611l-4.38202-1.496403-4.38202-4.489209 1.46067-7.482014 90.5618-10.47482-1.46067-4.489209-4.38203-4.489209 1.46068-14.964028-5.8427-7.482015v-7.482014l2.92135-2.992806v-7.482014l4.38202-4.489209-4.38202-1.496403v-5.985611l-4.38202-5.985612-5.8427-13.467626-26.29213-83.798561z"/></g></g></svg>