<svg height="48" viewBox="0 0 48 48" width="48" xmlns="http://www.w3.org/2000/svg"><path d="m23.8723404 0c13.1843296 0 23.8723405 10.6880109 23.8723405 23.8723404-.0140721 13.1784963-10.6938442 23.8582684-23.8723405 23.8723405-13.1843295 0-23.8723404-10.6880109-23.8723404-23.8723405 0-13.1843295 10.6880109-23.8723404 23.8723404-23.8723404zm0 3.06382979c-11.4922231 0-20.80851061 9.31628751-20.80851061 20.80851061s9.31628751 20.8085107 20.80851061 20.8085107 20.8085107-9.3162876 20.8085107-20.8085107c-.0140679-11.4863909-9.3221197-20.79444276-20.8085107-20.80851061zm0 30.43404251c1.0575666 0 1.9148936.8573271 1.9148936 1.9148937 0 1.0575665-.857327 1.9148936-1.9148936 1.9148936-1.0575665 0-1.9148936-.8573271-1.9148936-1.9148936 0-1.0575666.8573271-1.9148937 1.9148936-1.9148937zm0-23.87234032c.8460532 0 1.5319149.68586162 1.5319149 1.53191482v18.5617021c0 .8460533-.6858616 1.5319149-1.5319149 1.5319149-.4062891 0-.7959376-.1613977-1.0832274-.4486875-.2872898-.2872897-.4486875-.6769383-.4486875-1.0832274v-18.5617021c0-.8460532.6858617-1.53191482 1.5319149-1.53191482z" fill="#c4c4c4"/></svg>