<svg height="56" viewBox="0 0 56 56" width="56" xmlns="http://www.w3.org/2000/svg"><g fill="#006a8e" fill-rule="evenodd"><path d="m27.60147 2.445443c-13.87035 0-25.155 11.2614168-25.155 25.106081s11.28465 25.1084167 25.155 25.1084167 25.155-11.2637525 25.155-25.1084167-11.28465-25.106081-25.155-25.106081m0 52.6587728c-15.21936 0-27.60147-12.3615158-27.60147-27.5526918 0-15.1923438 12.38211-27.551524 27.60147-27.551524s27.60147 12.3591802 27.60147 27.551524c0 15.191176-12.38211 27.5526918-27.60147 27.5526918"/><g transform="translate(15.253333 12.196687)"><path d="m19.1157873 5.94498747v-2.6084797l2.5798635 2.6084797zm-.1171631 1.95520965h4.0643088v20.48944708h-21.13031041v-26.43443455h15.25054221v4.10939065c0 1.01210852.8144542 1.83559682 1.8154594 1.83559682zm5.9946563-1.02015939c-.0102375-.24612639-.1092005-.47615105-.2809639-.64866955l-5.8797682-5.94383735c-.182001-.18516985-.4242898-.28753083-.6825036-.28753083h-16.33458532c-1.00100523 0-1.81545948.8234883-1.81545948 1.83559683v26.67135997c0 1.0132586.81445425 1.8367469 1.81545948 1.8367469h21.36463662c1.0010052 0 1.8154595-.8234883 1.8154595-1.8367469v-21.58206426z"/><path d="m19.300251 11.463177h-13.60494648c-.53386211 0-.96641563.4536374-.96641563 1.0120521 0 .557224.43255352 1.0108614.96641563 1.0108614h13.60494648c.5338621 0 .9664157-.4536374.9664157-1.0108614 0-.5584147-.4325536-1.0120521-.9664157-1.0120521"/><path d="m19.300251 16.8576132h-13.60494648c-.53386211 0-.96641563.4557505-.96641563 1.0126467 0 .5557063.43255352 1.0102668.96641563 1.0102668h13.60494648c.5338621 0 .9664157-.4545605.9664157-1.0102668 0-.5568962-.4325536-1.0126467-.9664157-1.0126467"/><path d="m19.300251 21.5777449h-13.60494648c-.53386211 0-.96641563.4545605-.96641563 1.0126467 0 .5557063.43255352 1.0102668.96641563 1.0102668h13.60494648c.5338621 0 .9664157-.4545605.9664157-1.0102668 0-.5580862-.4325536-1.0126467-.9664157-1.0126467"/></g></g></svg>