<svg height="92" width="94" xmlns="http://www.w3.org/2000/svg" xmlns:xlink="http://www.w3.org/1999/xlink"><mask id="a" fill="#fff"><path d="m0 .583h93.382v91.417h-93.382z" fill="#fff" fill-rule="evenodd"/></mask><g fill="#fff" fill-rule="evenodd"><path d="m46.692 87.948c-23.461 0-42.55-18.69-42.55-41.655 0-22.969 19.089-41.656 42.55-41.656 23.463 0 42.548 18.687 42.548 41.656 0 22.965-19.085 41.655-42.548 41.655m0-87.366c-25.747 0-46.693 20.506-46.693 45.711 0 25.201 20.946 45.708 46.693 45.708 25.749 0 46.69-20.507 46.69-45.708 0-25.205-20.941-45.711-46.69-45.711" mask="url(#a)"/><path d="m39.287 26.409c-3.125 5.053-4.328 12.261-4.778 16.448-2.503-1.03-5.404-1.19-6.95-1.19-1.856 0-3.638.213-5.196.615 2.652-7.61 9.058-13.612 16.924-15.873m31.343 15.871c-1.558-.403-3.338-.614-5.19-.614-1.552 0-4.457.16-6.958 1.194-.464-4.171-1.7-11.37-4.935-16.456 7.945 2.263 14.413 8.262 17.083 15.876m-16.183.492c-2.938-.958-6.28-1.106-8.062-1.106-2.965 0-5.723.377-7.834 1.065 1.262-10.852 4.95-17.324 7.834-17.324 2.909 0 6.784 6.626 8.062 17.365m-6.062-21.227v-1.58c0-1.086-.897-1.966-2-1.966-1.102 0-2 .88-2 1.966v1.58c-13.54.9-24.588 10.645-26.94 23.792a3.407 3.407 0 0 0 -.445 1.662c0 1.087.893 1.966 1.998 1.966.798 0 2.048-.582 2.211-1.83l.026-.177c.736-.502 2.867-1.355 6.323-1.355 4.094 0 6.23 1.163 6.562 1.556.08.892.815 1.81 2.075 1.81a1.986 1.986 0 0 0 1.989-1.76c.664-.509 2.807-1.305 6.2-1.541v23.319c0 1.698-1.406 3.078-3.134 3.078s-3.136-1.38-3.136-3.078v-1.683c0-1.087-.897-1.969-2-1.969-1.1 0-1.998.882-1.998 1.969v1.683c0 3.868 3.199 7.013 7.134 7.013s7.134-3.145 7.134-7.013v-23.321c3.495.235 5.73 1.05 6.434 1.568.122 1.012 1.02 1.767 2.08 1.735 1.213-.056 1.905-.94 1.978-1.81.334-.393 2.476-1.556 6.564-1.556 3.452 0 5.583.853 6.32 1.355l.029.2c.163 1.248 1.392 1.807 2.207 1.807 1.107 0 2.004-.88 2.004-1.966 0-.395-.082-1.003-.447-1.661-2.325-12.934-13.72-22.897-27.169-23.792"/></g></svg>