<svg height="55" viewBox="0 0 55 55" width="55" xmlns="http://www.w3.org/2000/svg"><g fill="none" fill-rule="evenodd"><path d="m27.5014647 2.4365827c-13.8200951 0-25.06385872 11.2206146-25.06385872 25.0151169 0 13.7945024 11.24376362 25.0174442 25.06385872 25.0174442s25.0638587-11.2229418 25.0638587-25.0174442c0-13.7945023-11.2437636-25.0151169-25.0638587-25.0151169m0 52.4679802c-15.1642174 0-27.5014647-12.3167278-27.5014647-27.4528633 0-15.1372991 12.3372473-27.4516996 27.5014647-27.4516996s27.5014646 12.3144005 27.5014646 27.4516996c0 15.1361355-12.3372472 27.4528633-27.5014646 27.4528633" fill="#006a8e"/><path d="m18.3335652 29.9394361c-.6787617 0-1.2910558-.4098349-1.5503235-1.0358128-.2592676-.6272984-.115768-1.3483615.3640311-1.8277495.479359-.4811489 1.2016988-.6233366 1.8276386-.3640532.6272604.2592833 1.0357499.8711744 1.0357499 1.549097 0 .4459321-.1769534.8724951-.4908037 1.1863644-.3151708.3151899-.7417078.4921541-1.1862924.4921541zm0-4.033639c-.9675216 0-1.8390833.5828373-2.2097171 1.4764624-.3693133.8940654-.1659489 1.9215142.5185352 2.6060399.6844841.683205 1.7118705.8879024 2.6058816.5185667.8931307-.3710966 1.4763728-1.242271 1.4763728-2.2098514 0-.6343418-.2526649-1.242271-.6998905-1.6912846-.4489864-.4472528-1.0568787-.699933-1.691182-.699933z" fill="#020203"/><path d="m18.3335652 29.9394361c-.6787617 0-1.2910558-.4098349-1.5503235-1.0358128-.2592676-.6272984-.115768-1.3483615.3640311-1.8277495.479359-.4811489 1.2016988-.6233366 1.8276386-.3640532.6272604.2592833 1.0357499.8711744 1.0357499 1.549097 0 .4459321-.1769534.8724951-.4908037 1.1863644-.3151708.3151899-.7417078.4921541-1.1862924.4921541zm0-4.033639c-.9675216 0-1.8390833.5828373-2.2097171 1.4764624-.3693133.8940654-.1659489 1.9215142.5185352 2.6060399.6844841.683205 1.7118705.8879024 2.6058816.5185667.8931307-.3710966 1.4763728-1.242271 1.4763728-2.2098514 0-.6343418-.2526649-1.242271-.6998905-1.6912846-.4489864-.4472528-1.0568787-.699933-1.691182-.699933z" fill="#006a8e" stroke="#006a8e" stroke-width="1.2"/><path d="m36.6665557 29.9394361c-.6775383 0-1.28948-.4098349-1.549225-1.0358128-.2606255-.6272984-.1171054-1.3483615.3627625-1.8277495.4807485-.4811489 1.2018711-.6233366 1.8292214-.3640532.6260296.2592833 1.0345777.8711744 1.0345777 1.549097 0 .4459321-.1756581.8724951-.4908741 1.1863644-.315216.3151899-.741374.4921541-1.1864625.4921541m0-4.033639c-.9676603 0-1.8389068.5828373-2.2087132 1.4764624-.370687.8940654-.1659727 1.9215142.5172888 2.6060399.6845822.683205 1.713877.8879024 2.607576.5185667.893699-.3710966 1.4752637-1.242271 1.4752637-2.2098514 0-.6343418-.2509401-1.242271-.6999908-1.6912846-.4490508-.4472528-1.0570302-.699933-1.6914245-.699933" fill="#020203"/><path d="m36.6665557 29.9394361c-.6775383 0-1.28948-.4098349-1.549225-1.0358128-.2606255-.6272984-.1171054-1.3483615.3627625-1.8277495.4807485-.4811489 1.2018711-.6233366 1.8292214-.3640532.6260296.2592833 1.0345777.8711744 1.0345777 1.549097 0 .4459321-.1756581.8724951-.4908741 1.1863644-.315216.3151899-.741374.4921541-1.1864625.4921541zm0-4.033639c-.9676603 0-1.8389068.5828373-2.2087132 1.4764624-.370687.8940654-.1659727 1.9215142.5172888 2.6060399.6845822.683205 1.713877.8879024 2.607576.5185667.893699-.3710966 1.4752637-1.242271 1.4752637-2.2098514 0-.6343418-.2509401-1.242271-.6999908-1.6912846-.4490508-.4472528-1.0570302-.699933-1.6914245-.699933z" fill="#006a8e" stroke="#006a8e" stroke-width="1.2"/><path d="m42.2636413 26.553593v7.1561501h-29.528652v-7.0066159c-.0027311-.8373002.3975965-1.6238411 1.0770096-2.1131427l1.8922914-1.3714163h24.0741001l1.5953627 1.3714163h-.0013726c.567779.4952464.8939888 1.212279.8912608 1.9654376zm-.3710636 12.1616597h-4.0064786c-.2045102 0-.3710465-.1650821-.3710465-.3708632v-3.89292h4.7485715v3.89292c0 .0987749-.0388889.1925196-.1084315.2620279-.0695427.0695082-.1637912.1088353-.2626149.1088353zm-24.4090029-.3708632c0 .0987749-.0388889.1925196-.1084315.2620279-.0695427.0695082-.1637912.1088353-.2621574.1088353h-4.0064786c-.2045102 0-.371504-.1650821-.371504-.3708632v-3.89292h4.7485715zm-6.3796205-15.6087208v-1.0760063c0-.408361.3317-.741269.742093-.741269h3.8568704l-.6304588 1.8159034-.9649038.7042285h-2.2258215v.0009145c-.1953598.0105177-.3879746-.0576187-.5348376-.1897758-.1464056-.1330718-.2342489-.3169028-.2429417-.5139953zm7.1596875-6.8227849c.26536-.7330378.9621587-1.2223522 1.7431407-1.2223522h14.8381994c.7388904-.0027309 1.4096107.4344395 1.7051668 1.112145l2.9679144 6.6737079h-23.591877zm24.8898534 5.0068815v-.0013719c.1971899 0 .385687.0781968.5247723.2172133.1390852.1390165.2173207.3287924.2173207.5240557v1.0764636c0 .1970925-.0782355.3850392-.2173207.5240557-.1390853.1390165-.3275824.2172133-.5247723.2172133h-1.9284352l-.7796094-.6676452v-.111579l-.7796094-1.7797774zm1.4837284 1.8163607v-1.0764636c0-.3923558-.1564709-.7700784-.4346413-1.0485687-.2781705-.2780331-.6547072-.4344266-1.0490871-.4344266h-3.8568704l-2.0780434-4.6707725c-.4117655-.9443063-1.3432706-1.5557047-2.3735995-1.5566192h-14.8377419c-1.1044466.0009145-2.0867362.6991982-2.4490898 1.7422795l-1.5953627 4.4851122h-4.1167402c-.8203284 0-1.4837285.6649014-1.4837285 1.4829953v1.0764636c0 .3923558.1564709.7700784.4346414 1.0485687.2781705.2780331.6547072.4344266 1.0490871.4344266h1.26046c-.7068641.6310619-1.1113094 1.5351266-1.1126819 2.4840059v11.6412623c0 .615514.4982362 1.1121322 1.1126819 1.1121322h4.0069361c.6144457 0 1.1126819-.4966182 1.1126819-1.1121322v-3.89292h18.5472918v3.89292c0 .615514.4986938 1.1121322 1.1131395 1.1121322h4.0064786c.6144456 0 1.1131394-.4966182 1.1131394-1.1121322v-11.7894247c-.0032026-.874798-.3495431-1.714842-.9653614-2.3363007h1.1131395c.3939224 0 .7704591-.1563936 1.0490871-.4344267.2781705-.278033.4346414-.6562129.4346414-1.0485687z" fill="#020203"/><path d="m42.2636413 26.553593v7.1561501h-29.528652v-7.0066159c-.0027311-.8373002.3975965-1.6238411 1.0770096-2.1131427l1.8922914-1.3714163h24.0741001l1.5953627 1.3714163h-.0013726c.567779.4952464.8939888 1.212279.8912608 1.9654376zm-.3710636 12.1616597h-4.0064786c-.2045102 0-.3710465-.1650821-.3710465-.3708632v-3.89292h4.7485715v3.89292c0 .0987749-.0388889.1925196-.1084315.2620279-.0695427.0695082-.1637912.1088353-.2626149.1088353zm-24.4090029-.3708632c0 .0987749-.0388889.1925196-.1084315.2620279-.0695427.0695082-.1637912.1088353-.2621574.1088353h-4.0064786c-.2045102 0-.371504-.1650821-.371504-.3708632v-3.89292h4.7485715zm-6.3796205-15.6087208v-1.0760063c0-.408361.3317-.741269.742093-.741269h3.8568704l-.6304588 1.8159034-.9649038.7042285h-2.2258215v.0009145c-.1953598.0105177-.3879746-.0576187-.5348376-.1897758-.1464056-.1330718-.2342489-.3169028-.2429417-.5139953zm7.1596875-6.8227849c.26536-.7330378.9621587-1.2223522 1.7431407-1.2223522h14.8381994c.7388904-.0027309 1.4096107.4344395 1.7051668 1.112145l2.9679144 6.6737079h-23.591877zm24.8898534 5.0068815v-.0013719c.1971899 0 .385687.0781968.5247723.2172133.1390852.1390165.2173207.3287924.2173207.5240557v1.0764636c0 .1970925-.0782355.3850392-.2173207.5240557-.1390853.1390165-.3275824.2172133-.5247723.2172133h-1.9284352l-.7796094-.6676452v-.111579l-.7796094-1.7797774zm1.4837284 1.8163607v-1.0764636c0-.3923558-.1564709-.7700784-.4346413-1.0485687-.2781705-.2780331-.6547072-.4344266-1.0490871-.4344266h-3.8568704l-2.0780434-4.6707725c-.4117655-.9443063-1.3432706-1.5557047-2.3735995-1.5566192h-14.8377419c-1.1044466.0009145-2.0867362.6991982-2.4490898 1.7422795l-1.5953627 4.4851122h-4.1167402c-.8203284 0-1.4837285.6649014-1.4837285 1.4829953v1.0764636c0 .3923558.1564709.7700784.4346414 1.0485687.2781705.2780331.6547072.4344266 1.0490871.4344266h1.26046c-.7068641.6310619-1.1113094 1.5351266-1.1126819 2.4840059v11.6412623c0 .615514.4982362 1.1121322 1.1126819 1.1121322h4.0069361c.6144457 0 1.1126819-.4966182 1.1126819-1.1121322v-3.89292h18.5472918v3.89292c0 .615514.4986938 1.1121322 1.1131395 1.1121322h4.0064786c.6144456 0 1.1131394-.4966182 1.1131394-1.1121322v-11.7894247c-.0032026-.874798-.3495431-1.714842-.9653614-2.3363007h1.1131395c.3939224 0 .7704591-.1563936 1.0490871-.4344267.2781705-.278033.4346414-.6562129.4346414-1.0485687z" fill="#006a8e" stroke="#006a8e" stroke-width=".96"/></g></svg>