<svg height="109" viewBox="0 0 109 109" width="109" xmlns="http://www.w3.org/2000/svg"><g fill="none" fill-rule="evenodd" transform="translate(2 2)"><circle cx="52.5" cy="52.5" r="52.5" stroke="#fff" stroke-width="3.78"/><path d="m77.6973031 60.456876c0 .7701909-.6263091 1.3965-1.3965 1.3965h-6.1340204c-.7701909 0-1.3986159-.6263091-1.3986159-1.3965v-14.146968c0-.7701909.628425-1.3965 1.3986159-1.3965h6.1340204c.7701909 0 1.3965.6263091 1.3965 1.3965zm-23.3236656 15.9052885c0 .7701909-.6263091 1.3965-1.3986159 1.3965h-4.2487454c-.7723068 0-1.3986159-.6263091-1.3986159-1.3965v-1.7752477c0-.7744227.6263091-1.3965 1.3986159-1.3965l.3068068-.0021159h3.9419386c.7723068 0 1.3986159.6241932 1.3986159 1.3965zm-19.5446521-31.4487565c.7701909 0 1.3965.6263091 1.3965 1.3965v14.146968c0 .7701909-.6263091 1.3965-1.3965 1.3965h-6.1319044c-.7701909 0-1.3965-.6263091-1.3965-1.3965v-14.146968c0-.7701909.6263091-1.3965 1.3965-1.3965zm41.4739336-4.2677885h-.7194091c-1.3986159-9.9341931-11.5084294-17.6699566-23.7510792-17.6699566-12.2659249 0-22.3968975 7.7675021-23.7616588 17.7334338-2.8268545.3152705-5.0379795 2.6893205-5.0379795 5.5986954v14.146968c0 3.1230818 2.5390909 5.6664045 5.6642886 5.6664045h6.1361363c1.510759 0 2.9326499-.5945704 4.0032999-1.6609886 1.07065-1.0727659 1.6609886-2.4967727 1.6567568-4.0054159v-14.146968c0-3.1230818-2.5390909-5.6621726-5.6642886-5.6621726h-2.4121363c1.4240068-7.5728386 9.5744885-13.402168 19.4155816-13.402168 9.841093 0 17.9915748 5.8293294 19.4176975 13.402168h-1.0812296c-3.1230817 0-5.6621726 2.5390908-5.6621726 5.6621726v14.146968c0 3.1230818 2.5390909 5.6664045 5.6621726 5.6664045h.8886818c-.323734 2.2407477-1.1700977 4.0456181-2.5602499 5.3595977-2.7887682 2.6470022-6.9740363 2.7866522-8.2203067 2.7422181h-1.6715682c-.1925477-2.953809-2.6321909-5.3003522-5.630434-5.3003522h-4.2487454c-3.1230818 0-5.6621727 2.5390909-5.6621727 5.6642886v1.7752477c0 3.1230818 2.5390909 5.6621726 5.6621727 5.6621726h4.2487454c2.371934 0 4.4010908-1.464209 5.2432226-3.535684l1.9339409-.0021159c.0380864.0042318.2264023.0126954.5310932.0126954 1.5446136 0 6.8915158-.2793 10.7255431-3.8996204 2.2597908-2.1243727 3.5737704-4.978734 3.9504022-8.4784476h.9436954c3.1209659 0 5.6642886-2.5433227 5.6642886-5.6664045v-14.146968c0-3.1230818-2.5433227-5.6621726-5.6642886-5.6621726z" fill="#fff"/></g></svg>