<svg height="24" viewBox="0 0 19 24" width="19" xmlns="http://www.w3.org/2000/svg" xmlns:xlink="http://www.w3.org/1999/xlink"><mask id="a" fill="#fff"><path d="m0 .02068407h18.1912584v17.05931323h-18.1912584z" fill="#fff" fill-rule="evenodd"/></mask><mask id="b" fill="#fff"><path d="m.01491524.055384h8.83435156v16.0980344h-8.83435156z" fill="#fff" fill-rule="evenodd"/></mask><g fill="none" fill-rule="evenodd"><path d="m15.888397 21.3167717c-.0783.0234-.0471.0156 0 0" fill="#000"/><path d="m16.5184331 8.55074573c-.011-.0738-.0379-.1516 0 0" fill="#000"/><g fill="#006a8e"><path d="m16.3614824 14.9644316c.0085-.0109.0156-.0197.0192-.0233-.0058.0083-.013.0153-.0192.0233m-14.278446-13.025922c.0032-.0027.0069-.0059.0101-.0086-.002.002-.0057.0051-.0101.0086m14.0901818.00759242c.0364.0193.0258.0142 0 0m1.2900402-1.07784442c-.946344-.9856-2.296-.84-3.533544-.84h-1.075256c-.436744 0-.862344.3864-.84.84.005656.4424.3528.828744.823256.828744h2.4752.112c.056 0 .112.005656.168.005656-.1512-.005656.1008.016744.162344.039144.043792.009744.083832.023856.126504.03836.074984.03808.145376.080808.220696.118496.005768.002968.010528.005432.0154.008008.034888.026376.066024.056504.0966.087136.0448.044856.1848.2352.1008.100856.043064.066864.085624.137872.121632.20944-.032032-.060312.02604.088424.040824.137704.0112.0336.016744.072856.0224.106456-.003192-.012208-.005712-.022176-.008008-.031248.0014.009128.002352.018144.002352.025648v.078344.112 4.7488 5.986456.761544.1848.033656.005544c0 .0392-.005544.0728-.005544.112.000224.003416.000504.005544.000784.00812-.00196.005824-.004032.012152-.00644.01988-.00924.037016-.079296.214648-.05936.187432-.030912.056952-.062328.11396-.09744.171024-.008064.0126-.01288.020384-.01568.025088-.016688.0182-.033992.035784-.05152.053256-.036904.03696-.168672.142128-.14476.130872-.071176.044912-.142408.084-.213584.126784-.010976.005432-.029512.01204-.045024.017136.009856-.002912.022736-.00672.039368-.011592-.033544.0112-.0728.022456-.106344.033656-.065856.021896-.135128.03696-.205184.050512-.011088-.002744-.125776.005488-.153272.005488h-.313544-5.0792-6.059256c-.408744 0-.817544.005544-1.2264 0-.009072 0-.072016-.00168-.114744-.002296-.027272-.0042-.087248-.011256-.1036-.01456-.039256-.0056-.0728-.0168-.112-.028-.0504-.011144-.095256-.028-.145656-.0448.145656.0448-.0056 0-.039144-.022344-.078456-.0392-.1512-.084-.218456-.134456.134456.0896-.072744-.072744-.1064-.1064-.022344-.028-.050344-.056-.072744-.078344-.028728-.04788-.11844-.238-.109088-.19124-.017192-.06132-.029288-.125216-.048888-.181328-.001456-.039816-.004424-.079128-.004424-.114688v-.0224-.1568-4.933544-5.88-.683256-.1456-.0896c0-.003416.000448-.011144.00112-.020272.005488-.02744.013048-.067368.01568-.080528.0112-.0336.022344-.0672.028-.106344.001344-.00616.002184-.010528.003304-.015792.002296-.003192.00476-.006944.007896-.012208.039144-.072856.0784-.145656.1288-.212856-.089656.134456.056-.061544.100744-.1008.02184-.021784.04564-.043008.06916-.06328.004144-.002632.008848-.005656.01484-.009464.0812-.052528.162624-.10052.24724-.141456-.021448.014.130592-.039816.167216-.049.0504-.011144.28-.033544.123144-.028.072856-.005544.145656-.005544.2184-.005544h1.360856 1.0304c.436744 0 .862344-.386456.84-.84-.0224-.4536-.369656-.84-.84-.84-.8064 0-1.6184-.011256-2.4304 0-1.500856.0224-2.755256 1.148-2.760856 2.676744-.005544 1.624 0 3.248 0 4.872v6.0928c0 .677656-.033544 1.3272.2856 1.96.448.8848 1.411256 1.405656 2.38 1.4448.123256.005656.2464 0 .369656 0h5.3032 6.1488c.520744 0 1.052744.033656 1.568-.067144.9464-.184856 1.7584-.924 2.032744-1.842456.084-.285544.1008-.588.1008-.884744v-5.2248-5.857656-.5264c-.005544-.6776-.257544-1.316-.728-1.803144" mask="url(#a)" transform="translate(0 5.992616)"/><path d="m.2544808 10.6514184c-.336.336-.3024.8456 0 1.1872 1.0416 1.1872 2.0888 2.3688 3.1304 3.556.1512.1736.3024.3416.4536.5152.2856.3248.901656.3248 1.1872 0 1.0416-1.1872 2.0888-2.3688 3.130456-3.556.151144-.1736.302344-.3416.453544-.5152.302456-.3416.336-.8512 0-1.1872-.308-.308-.8848-.3416-1.1872 0-.715456.815528-1.433208 1.628872-2.150344 2.442776v-2.817976-7.616-1.764c0-.4368-.386456-.8624-.840056-.84s-.84.3696-.84.84v4.816 7.38192c-.566104-.64204-1.132208-1.284024-1.6968-1.92752-.1512-.1736-.3024-.3416-.4536-.5152-.3024-.3416-.8792-.308-1.1872 0" mask="url(#b)" transform="translate(4.648 .000616)"/></g></g></svg>