<svg height="94" width="95" xmlns="http://www.w3.org/2000/svg" xmlns:xlink="http://www.w3.org/1999/xlink"><mask id="a" fill="#fff"><path d="m0 .184h94.818v93.816h-94.818z" fill="#fff" fill-rule="evenodd"/></mask><g fill="#fff" fill-rule="evenodd"><path d="m47.408 89.84c-23.822 0-43.207-19.18-43.207-42.75s19.385-42.744 43.207-42.744c23.824 0 43.207 19.173 43.207 42.744 0 23.57-19.383 42.75-43.207 42.75m0-89.658c-26.141 0-47.409 21.043-47.409 46.908.001 25.864 21.268 46.91 47.409 46.91 26.143 0 47.41-21.046 47.41-46.91 0-25.865-21.267-46.908-47.41-46.908" mask="url(#a)"/><path d="m59.415 30.188v-4.47l4.646 4.47zm-.211 3.35h7.317v35.113h-38.041v-45.3h27.454v7.042c0 1.734 1.469 3.146 3.269 3.146zm10.286-2.86-10.585-10.184a1.755 1.755 0 0 0 -1.23-.493h-29.406c-1.803-.001-3.269 1.41-3.269 3.147v45.704c0 1.738 1.466 3.148 3.268 3.148h38.464c1.802 0 3.268-1.411 3.268-3.148v-36.985l-.004-.077a1.628 1.628 0 0 0 -.506-1.111z"/><path d="m34 41c0 1.104.754 2 1.681 2h23.642c.927 0 1.677-.896 1.677-2s-.75-2-1.677-2h-23.643c-.927 0-1.681.896-1.681 2m25.321 7h-23.638c-.927 0-1.681.901-1.681 2.002 0 1.1.754 1.998 1.681 1.998h23.64c.927 0 1.679-.899 1.679-1.998 0-1.1-.752-2.002-1.68-2.002m-.001 10h-23.638c-.927 0-1.681.899-1.681 2.002 0 1.1.754 1.998 1.681 1.998h23.64c.927 0 1.679-.899 1.679-1.998-.001-1.102-.753-2.002-1.681-2.002"/></g></svg>