<svg height="171" viewBox="0 0 172 171" width="172" xmlns="http://www.w3.org/2000/svg"><g fill="none" fill-rule="evenodd" transform="translate(3.5 3)"><circle cx="82.5" cy="82.5" r="82.5" stroke="#fff" stroke-width="6"/><path d="m82.3227848 54c-21.1440716 0-39.910989 10.6324556-51.5475 26.97-.8538956 1.2053436-.8538956 2.8184064 0 4.02375 11.6365087 16.337788 30.4034307 27.00625 51.5475 27.00625 21.1440682 0 39.9109902-10.668462 51.5475002-27.00625.853895-1.2053436.853895-2.8184064 0-4.02375-11.636512-16.3375444-30.40343-26.97-51.5475002-26.97zm0 6.96c17.9090542 0 33.7823812 8.6004604 44.2612502 22.04-10.479126 13.426884-26.362096 22.04-44.2612502 22.04-17.8991549 0-33.7821255-8.613116-44.26125-22.04 10.4788682-13.4395396 26.3521945-22.04 44.26125-22.04zm0 4.64c-9.568536 0-17.4 7.8314384-17.4 17.4 0 9.568492 7.831464 17.4 17.4 17.4 9.5685361 0 17.4-7.831508 17.4-17.4 0-9.5685616-7.8314639-17.4-17.4-17.4z" fill="#fff" fill-rule="nonzero"/></g></svg>