<svg enable-background="new 0 0 468.23 134.91" viewBox="0 0 468.23 134.91" xmlns="http://www.w3.org/2000/svg"><path d="m148.16 113.3c0-1.85.7-3.13 2.11-3.85s3.45-1.08 6.12-1.08h1.69v-.75c0-1.18-.32-2.21-.97-3.08s-1.61-1.31-2.9-1.31c-.99 0-1.85.18-2.6.53s-1.16.53-1.23.53c-.33 0-.59-.16-.79-.48s-.3-.65-.3-1c0-.54.53-1.01 1.6-1.42s2.2-.62 3.4-.62c2.3 0 4 .65 5.09 1.95s1.64 2.93 1.64 4.88v9.01c0 .3-.13.56-.41.76-.27.2-.62.3-1.04.3-.37 0-.69-.1-.95-.29s-.39-.44-.39-.74v-1.37c-1.59 1.79-3.37 2.68-5.31 2.68-1.41 0-2.55-.39-3.43-1.19-.89-.8-1.33-1.95-1.33-3.46zm2.95-.32c0 .88.25 1.55.74 2s1.15.68 1.97.68c.99 0 1.94-.4 2.87-1.19s1.39-1.61 1.39-2.44v-1.85h-1.23c-.68 0-1.27.02-1.76.05-.49.04-1 .11-1.53.21-.53.11-.96.26-1.3.46s-.62.47-.83.82c-.21.33-.32.76-.32 1.26z" fill="#221f1f"/><path d="m177.59 94.37c0-.34.18-.61.55-.84.37-.22.75-.34 1.15-.34.56 0 .9.21 1.04.64l5.89 19.88 5.86-19.88c.15-.42.48-.64.99-.64.42 0 .81.12 1.17.37.36.24.54.52.54.83 0 .02-.01.06-.02.1s-.02.09-.02.13l-6.8 22.25c-.24.66-.82.99-1.74.99s-1.48-.32-1.69-.97l-6.86-22.25c-.04-.14-.06-.23-.06-.27z" fill="#e35205"/><path d="m204.1 116.65v-22.49c0-.31.14-.55.42-.72s.61-.25.99-.25.71.09.99.25c.28.17.42.41.42.72v22.49c0 .31-.14.56-.42.74s-.61.27-.99.27-.71-.09-.99-.27-.42-.42-.42-.74z" fill="#e35205"/><path d="m217.75 110.56v-10.07c0-2.5.66-4.34 1.99-5.52s3.06-1.77 5.2-1.77c2.19 0 3.94.55 5.25 1.66 1.32 1.1 1.97 2.49 1.97 4.17 0 .6-.11 1.01-.34 1.22s-.58.32-1.07.32c-.89 0-1.36-.32-1.41-.97-.13-2.57-1.58-3.85-4.35-3.85-2.97 0-4.45 1.58-4.45 4.75v10.07c0 3.17 1.52 4.75 4.55 4.75.87 0 1.59-.12 2.18-.37.58-.25 1.01-.6 1.29-1.07s.46-.87.55-1.2c.09-.34.17-.78.23-1.34.07-.65.54-.97 1.41-.97.49 0 .85.11 1.07.34s.34.63.34 1.24c0 1.7-.66 3.11-1.99 4.23-1.33 1.13-3.08 1.69-5.27 1.69-2.12 0-3.84-.59-5.17-1.77-1.32-1.2-1.98-3.04-1.98-5.54z" fill="#e35205"/><path d="m240.14 94.43c0-.33.09-.61.27-.86s.42-.38.74-.38h13.62c.31 0 .56.13.74.38s.27.54.27.86c0 .35-.09.65-.27.91s-.43.39-.74.39h-5.39v20.91c0 .31-.14.56-.42.74s-.61.27-.99.27-.71-.09-.99-.27-.42-.42-.42-.74v-20.9h-5.42c-.31 0-.56-.13-.74-.38-.17-.25-.26-.56-.26-.93z" fill="#e35205"/><path d="m264.2 110.56v-10.07c0-2.52.65-4.37 1.96-5.54s3.05-1.76 5.24-1.76 3.94.59 5.25 1.76c1.32 1.17 1.97 3.02 1.97 5.54v10.07c0 2.52-.66 4.37-1.97 5.54-1.32 1.17-3.07 1.76-5.25 1.76-2.19 0-3.93-.59-5.24-1.76s-1.96-3.02-1.96-5.54zm2.81 0c0 3.17 1.46 4.75 4.38 4.75 1.41 0 2.49-.4 3.26-1.19s1.15-1.98 1.15-3.56v-10.07c0-1.58-.38-2.77-1.15-3.56s-1.86-1.19-3.26-1.19c-2.92 0-4.38 1.58-4.38 4.75z" fill="#e35205"/><path d="m289.46 116.65v-22.49c0-.27.09-.49.28-.67s.43-.28.72-.3h6.12c2.23 0 4.03.52 5.39 1.56s2.04 2.75 2.04 5.14c0 3.68-1.66 5.86-4.99 6.53l4.95 9.4c.09.16.13.31.13.47 0 .36-.18.69-.54.99s-.74.45-1.14.45c-.47 0-.89-.37-1.27-1.1l-5.05-9.81h-3.85v9.84c0 .31-.14.56-.42.74s-.61.27-.99.27-.71-.09-.99-.27c-.25-.19-.39-.43-.39-.75zm2.82-12.18h4.32c3.08 0 4.62-1.46 4.62-4.38 0-2.9-1.54-4.35-4.62-4.35h-4.32z" fill="#e35205"/><g fill="#221f1f"><path d="m320.1 111.11v-3.52c0-2.02.59-3.66 1.78-4.93 1.18-1.27 2.93-1.9 5.23-1.9 1.46 0 2.68.26 3.68.77s1.5 1.07 1.5 1.65c0 .33-.12.65-.37.97s-.53.47-.86.47c-.09 0-.5-.2-1.21-.6-.72-.4-1.56-.6-2.52-.6-1.41 0-2.48.36-3.2 1.09-.73.72-1.09 1.75-1.09 3.08v3.5c0 2.78 1.44 4.17 4.33 4.17.99 0 1.84-.21 2.57-.62s1.15-.62 1.27-.62c.37 0 .69.15.93.46.25.3.37.62.37.95 0 .59-.52 1.15-1.55 1.69s-2.3.81-3.8.81c-2.32 0-4.08-.63-5.26-1.88-1.2-1.25-1.8-2.9-1.8-4.94z"/><path d="m335.45 111.11v-3.59c0-1.81.69-3.38 2.06-4.73s3-2.02 4.88-2.02 3.51.67 4.89 2.01c1.39 1.34 2.08 2.92 2.08 4.75v3.59c0 1.78-.7 3.37-2.09 4.75-1.4 1.39-3.02 2.08-4.88 2.08s-3.47-.69-4.86-2.06c-1.39-1.38-2.08-2.97-2.08-4.78zm2.92-.01c0 1.1.4 2.06 1.2 2.91.8.84 1.74 1.26 2.82 1.26 1.1 0 2.05-.43 2.85-1.28s1.2-1.81 1.2-2.89v-3.57c0-1.05-.4-1.99-1.2-2.83s-1.75-1.26-2.85-1.26-2.05.42-2.83 1.26c-.79.84-1.18 1.78-1.18 2.83v3.57z"/><path d="m353.76 116.6v-14.61c0-.3.13-.55.41-.74.27-.19.62-.28 1.04-.28.37 0 .69.1.95.29s.39.44.39.75v1.46c.42-.78 1.04-1.43 1.85-1.94s1.75-.77 2.83-.77 2.05.33 2.9.98c.86.65 1.5 1.51 1.92 2.58.59-1.16 1.36-2.04 2.32-2.65.96-.6 1.97-.91 3.03-.91 1.64 0 3.06.61 4.24 1.83s1.78 2.86 1.78 4.93v9.08c0 .26-.15.5-.44.72s-.64.33-1.04.33c-.37 0-.71-.11-1-.33s-.44-.46-.44-.72v-9.06c0-1.26-.37-2.27-1.11-3-.74-.74-1.6-1.11-2.59-1.11s-1.86.37-2.62 1.12-1.15 1.71-1.15 2.88v9.2c0 .33-.15.58-.44.75-.29.18-.64.26-1.04.26-.38 0-.71-.09-1-.26-.29-.18-.44-.43-.44-.75v-9.16c0-1.17-.36-2.14-1.07-2.9s-1.58-1.14-2.59-1.14-1.89.37-2.64 1.12-1.13 1.74-1.13 2.99v9.06c0 .26-.15.5-.44.72s-.64.33-1.04.33-.74-.11-1.02-.32c-.28-.2-.42-.45-.42-.73z"/><path d="m382.34 124.66v-22.67c0-.3.13-.55.41-.74.27-.19.6-.28 1-.28s.73.1.99.29.39.44.39.75v1.46c.42-.76 1.04-1.4 1.87-1.93.82-.52 1.77-.78 2.85-.78 1.76 0 3.25.66 4.49 1.99 1.23 1.33 1.85 2.92 1.85 4.77v3.59c0 1.78-.62 3.37-1.87 4.75-1.24 1.39-2.69 2.08-4.33 2.08-1.03 0-1.98-.27-2.83-.8-.86-.53-1.49-1.19-1.88-1.98v9.5c0 .26-.15.5-.44.73-.29.22-.64.34-1.04.34s-.74-.11-1.02-.32c-.3-.22-.44-.47-.44-.75zm2.92-12.62c0 .58.41 1.26 1.22 2.05.81.78 1.73 1.17 2.76 1.17 1.06 0 1.99-.43 2.8-1.28s1.22-1.81 1.22-2.89v-3.57c0-1.05-.41-1.99-1.22-2.83s-1.77-1.26-2.87-1.26c-1.03 0-1.94.38-2.73 1.14s-1.18 1.74-1.18 2.96z"/><path d="m399.48 113.3c0-1.85.7-3.13 2.11-3.85s3.45-1.08 6.12-1.08h1.69v-.75c0-1.18-.32-2.21-.97-3.08s-1.61-1.31-2.9-1.31c-.99 0-1.85.18-2.6.53s-1.16.53-1.23.53c-.33 0-.59-.16-.79-.48s-.3-.65-.3-1c0-.54.53-1.01 1.6-1.42s2.2-.62 3.4-.62c2.3 0 4 .65 5.09 1.95s1.64 2.93 1.64 4.88v9.01c0 .3-.13.56-.41.76-.27.2-.62.3-1.04.3-.37 0-.69-.1-.95-.29s-.39-.44-.39-.74v-1.37c-1.59 1.79-3.37 2.68-5.31 2.68-1.41 0-2.55-.39-3.43-1.19-.89-.8-1.33-1.95-1.33-3.46zm2.96-.32c0 .88.25 1.55.74 2s1.15.68 1.97.68c.99 0 1.94-.4 2.87-1.19s1.39-1.61 1.39-2.44v-1.85h-1.23c-.68 0-1.27.02-1.76.05-.49.04-1 .11-1.53.21-.53.11-.96.26-1.3.46s-.62.47-.83.82c-.22.33-.32.76-.32 1.26z"/><path d="m417.22 116.6v-14.61c0-.3.13-.55.41-.74.27-.19.62-.28 1.04-.28.35 0 .66.1.93.3s.41.45.41.73v1.46c.37-.76.98-1.4 1.81-1.93.83-.52 1.8-.78 2.9-.78 1.67 0 3.12.66 4.35 1.99s1.85 2.92 1.85 4.77v9.08c0 .33-.15.59-.44.77-.29.19-.64.28-1.04.28-.38 0-.71-.09-1-.28s-.44-.44-.44-.77v-9.06c0-1.05-.4-2-1.2-2.84s-1.74-1.26-2.82-1.26c-1.01 0-1.9.38-2.68 1.14-.77.76-1.16 1.75-1.16 2.97v9.06c0 .26-.15.5-.46.72s-.65.33-1.02.33c-.4 0-.74-.11-1.02-.32-.27-.2-.42-.45-.42-.73z"/><path d="m433.84 102.16c0-.37.21-.7.63-.98s.85-.42 1.27-.42c.49 0 .81.2.95.6l4.65 12.19 4.19-12.19c.16-.4.47-.6.92-.6.4 0 .81.14 1.25.42.43.28.65.62.65 1.02 0 .12-.03.23-.11.35l-5.35 14.33-.67 1.76c-.12.33-.35.89-.7 1.69s-.65 1.37-.88 1.72-.56.82-.99 1.39c-.42.57-.83.99-1.23 1.25s-.87.49-1.43.7c-.55.21-1.13.32-1.74.32-.91 0-1.37-.45-1.37-1.36 0-.88.28-1.32.84-1.32 1.06 0 2.08-.59 3.08-1.77s1.67-2.69 2.02-4.54l-5.84-14.19c-.09-.12-.14-.25-.14-.37z"/><path d="m20.34 22.04h15.89c13.33 0 24.81 10.24 25.44 23.55.68 14.22-10.66 25.98-24.74 25.98h-17.07c-.71 0-1.29-.58-1.29-1.29v-46.47c0-.98.79-1.77 1.77-1.77zm12.47 36.59h3.69c5.95 0 11.3-4.2 12.14-10.09 1.01-7.13-4.61-13.35-11.64-13.35h-3.65c-1.01 0-1.83.82-1.83 1.83v20.33c0 .7.57 1.28 1.29 1.28z"/><path d="m104.03 22.04c13.67 0 24.77 11.16 24.77 24.83s-11.1 24.7-24.77 24.7-24.7-11.03-24.7-24.7 11.03-24.83 24.7-24.83zm0 12.95c-6.47 0-11.76 5.28-11.76 11.82 0 6.47 5.28 11.82 11.76 11.82 6.54 0 11.82-5.35 11.82-11.82 0-6.54-5.28-11.82-11.82-11.82z"/><path d="m213.63 22.04h28.2c.71 0 1.29.58 1.29 1.29v8.19c0 .71-.58 1.29-1.29 1.29h-15.19c-.71 0-1.29.58-1.29 1.29v5.48c0 .71.58 1.29 1.29 1.29h13.14c.71 0 1.29.58 1.29 1.29v8.39c0 .71-.58 1.29-1.29 1.29h-13.14c-.71 0-1.29.58-1.29 1.29v6.54c0 .71.58 1.29 1.29 1.29h15.19c.71 0 1.29.58 1.29 1.29v8.06c0 .71-.58 1.29-1.29 1.29h-28.2c-.71 0-1.29-.58-1.29-1.29v-46.98c0-.71.58-1.29 1.29-1.29z"/><path d="m265.87 21.98h36.46c.71 0 1.29.58 1.29 1.29v10.37c0 .71-.58 1.29-1.29 1.29h-10.57c-.71 0-1.29.58-1.29 1.29v34.08c0 .71-.58 1.29-1.29 1.29h-10.44c-.71 0-1.29-.58-1.29-1.29v-34.09c0-.71-.58-1.29-1.29-1.29h-10.3c-.71 0-1.29-.58-1.29-1.29v-10.37c.02-.71.59-1.28 1.3-1.28z"/><path d="m381.1 22.04h10.44c.71 0 1.29.58 1.29 1.29v46.96c0 .71-.58 1.29-1.29 1.29h-10.44c-.71 0-1.29-.58-1.29-1.29v-46.96c0-.71.58-1.29 1.29-1.29z"/><path d="m420.1 22.04h10.44c.71 0 1.29.58 1.29 1.29v33.88c0 .71.58 1.29 1.29 1.29h15.26c.71 0 1.29.58 1.29 1.29v10.5c0 .71-.58 1.29-1.29 1.29h-28.28c-.71 0-1.29-.58-1.29-1.29v-46.96c.01-.71.58-1.29 1.29-1.29z"/><path d="m167.06 48.59-15.02-25.86c-.27-.46-.77-.75-1.31-.75h-11.26c-1.17 0-1.89 1.26-1.3 2.25l28.75 47.89c.59.99 2.05.97 2.61-.03l18.69-33.12c.19-.33-.06-.75-.44-.75h-7.54c-3.01 0-5.79 1.63-7.22 4.26l-3.33 6.08c-.56 1.02-2.04 1.04-2.63.03"/></g><path d="m189.03 21.98c-2.97 0-5.56 1.65-6.87 4.07l-2.9 4.81-.87 1.58c1.32-1 2.9-1.58 4.69-1.58l9.83-.04 4.52-7.93c.23-.41-.07-.91-.54-.91z" fill="#e35205"/><path d="m314.23 69.32 21.61-45.81c.21-.41.69-.75 1.17-.75h.69c.48 0 .97.34 1.17.75l21.61 45.81c.41.88-.14 1.77-1.17 1.77h-7.66c-1.24 0-1.8-.41-2.42-1.7l-2.49-5.38h-18.78l-2.49 5.45c-.35.82-1.11 1.63-2.49 1.63h-7.6c-1.01 0-1.56-.88-1.15-1.77zm28.38-14.56-5.25-11.23h-.07l-5.18 11.23z" fill="#221f1f"/></svg>