<svg height="40" viewBox="0 0 158 40" width="158" xmlns="http://www.w3.org/2000/svg"><g fill="none" fill-rule="evenodd"><g fill-rule="nonzero"><g fill="#fff"><path d="m.65117219.38996056h5.84583393c4.90402558 0 9.12744748 3.85927146 9.35922058 8.87557059.2501679 5.35926175-3.9217489 9.79139375-9.10169485 9.79139375h-6.27994873c-.26120466 0-.47458312-.2185915-.47458312-.4861777v-17.51370554c0-.36934434.29063617-.6670811.65117219-.6670811zm4.58763683 13.79011154h1.35752845c2.18896866 0 4.15720093-1.5829043 4.46623183-3.8027391.3715728-2.68716852-1.69599082-5.03137443-4.28228488-5.03137443h-1.3428127c-.37157283 0-.67324582.30904322-.67324582.68969402v7.66201061c0 .2638174.20969951.4824089.47458312.4824089z"/><path d="m30.7872844.38996056c5.1582252 0 9.346689 4.20600288 9.346689 9.35797952 0 5.15197662-4.1884638 9.30898482-9.346689 9.30898482-5.1582253 0-9.3202754-4.1570082-9.3202754-9.30898482 0-5.15197664 4.1620501-9.35797952 9.3202754-9.35797952zm0 4.88062162c-2.4413839 0-4.4375076 1.98993684-4.4375076 4.45474498 0 2.43842644 1.9923503 4.45474494 4.4375076 4.45474494 2.4677976 0 4.4601479-2.0163185 4.4601479-4.45474494 0-2.46480814-1.9923503-4.45474498-4.4601479-4.45474498z"/><path d="m71.4038679.38996056h10.2613722c.2583537 0 .4694032.21845923.4694032.48588345v3.08479496c0 .26742423-.2110495.48588346-.4694032.48588346h-5.5273136c-.2583537 0-.4694032.21845923-.4694032.48588346v2.06406305c0 .26742422.2110495.48588345.4694032.48588345h4.7813628c.2583537 0 .4694032.21845923.4694032.48588346v3.16012575c0 .2674242-.2110495.4858834-.4694032.4858834h-4.7813628c-.2583537 0-.4694032.2184593-.4694032.4858835v2.4633161c0 .2674242.2110495.4858835.4694032.4858835h5.5273136c.2583537 0 .4694032.2184592.4694032.4858834v3.03583c0 .2674242-.2110495.4858834-.4694032.4858834h-10.2613722c-.2583537 0-.4694032-.2184592-.4694032-.4858834v-17.69519749c0-.26742422.2110495-.48588345.4694032-.48588345z"/><path d="m90.0675056.38996056h13.0716554c.254549 0 .462491.21823905.462491.48539375v3.90196373c0 .2671547-.207942.48539375-.462491.48539375h-3.7895611c-.2545495 0-.4624914.21823905-.4624914.48539376v12.82342565c0 .2671547-.2079418.4853937-.4624914.4853937h-3.7429534c-.2545495 0-.4624913-.218239-.4624913-.4853937v-12.8271884c0-.2671547-.2079419-.48539375-.4624914-.48539375h-3.6927606c-.2545495 0-.4624914-.21823905-.4624914-.48539375v-3.90196373c.0071705-.2671547.2115271-.48163101.4660766-.48163101z"/><path d="m132.064472.38996056h3.741995c.254484 0 .462373.21854742.462373.48607961v17.69480513c0 .2675322-.207889.4860796-.462373.4860796h-3.741995c-.254484 0-.462373-.2185474-.462373-.4860796v-17.69480513c0-.26753219.207889-.48607961.462373-.48607961z"/><path d="m147.003857.38996056h3.789043c.257684 0 .468186.21854742.468186.48607961v12.76618393c0 .2675322.210502.4860796.468186.4860796h5.538391c.257684 0 .468186.2185475.468186.4860797v3.9564619c0 .2675322-.210502.4860796-.468186.4860796h-10.263806c-.257684 0-.468187-.2185474-.468187-.4860796v-17.69480513c.00363-.26753219.210503-.48607961.468187-.48607961z"/></g><g transform="translate(42.934018 .389961)"><path d="m11.0386023 9.90426053-5.51562897-9.28322498c-.09914912-.16513084-.28275861-.26923507-.48105685-.26923507h-4.13488562c-.4296462 0-.69404386.45231491-.47738466.80770519l10.5575454 17.19155623c.2166592.3553903.7527989.3482107.9584415-.0107694l6.8633226-11.88942038c.0697716-.11846343-.0220331-.26923507-.1615763-.26923507h-2.7688311c-1.1053291 0-2.1261978.58513754-2.6513209 1.52925516l-1.2228392 2.18259891c-.2056426.36615968-.7491267.37333928-.9657859.01076941" fill="#fff"/><path d="m19.1064031.35180048c-1.0906404 0-2.0417375.59231714-2.5227943 1.46104895l-1.0649351 1.7266942-.3194805.56718853c.4847291-.35898008 1.064935-.56718853 1.722257-.56718853l3.6097625-.0143592 1.6598297-2.84671207c.0844604-.14718184-.0257053-.32667188-.1982982-.32667188z" fill="#e35205"/></g><path d="m108.320483 18.4074629 8.237277-16.80895834c.080047-.15044036.263013-.27519578.445979-.27519578h.263014c.182966 0 .369743.12475542.445979.27519578l8.237276 16.80895834c.156284.3228964-.053365.649462-.445979.649462h-2.91983c-.472662 0-.686123-.1504403-.922453-.6237771l-.949136-1.974071h-7.15854l-.949136 1.999756c-.133412.3008807-.423108.5980921-.949135.5980921h-2.89696c-.384991 0-.594639-.3228963-.438356-.649462zm10.817858-5.3424674-2.001189-4.12059821h-.026683l-1.974507 4.12059821z" fill="#fff"/></g><g fill="#fff" font-family="DIN2014-Light, DIN 2014" font-size="12.075472" font-weight="300" transform="translate(47.169811 24.528302)"><text><tspan x=".084528" y="12">a</tspan></text><text><tspan x="63.396226" y="12">company</tspan></text></g><path d="m61.858594 38.4953186 2.457106-8.3320755h-.9337002l-1.9361996 6.6415095-1.9067143-6.6415095h-.9337003l2.4571061 8.3320755zm6.6247433 0v-8.3320755h-.8452445v8.3320755zm6.9273528.0966038c1.2875235 0 2.2113954-.8211321 2.4276207-2.6928302h-.8157592c-.2260537 1.2196226-.7273033 1.7509434-1.6118615 1.7509434-1.041813 0-1.6118616-.7969811-1.6118616-2.8618868v-.9177358c0-2.0649057.5700486-2.8618868 1.6118616-2.8618868.835416 0 1.3759794.4467924 1.6118615 1.7509434h.8255877c-.2162254-1.8233963-1.1007835-2.6928302-2.4374492-2.6928302-1.5037489 0-2.4571061 1.1109434-2.4571061 3.8037736v.9177358c0 2.6928302.9533572 3.8037736 2.4571061 3.8037736zm8.2091912-.0966038v-7.3901887h2.0639691v-.9418868h-4.9731826v.9418868h2.0639691v7.3901887zm8.3054318.0966038c1.5037489 0 2.4571061-1.1109434 2.4571061-3.8037736v-.9177358c0-2.6928302-.9533572-3.8037736-2.4571061-3.8037736-1.5037488 0-2.457106 1.1109434-2.457106 3.8037736v.9177358c0 2.6928302.9533572 3.8037736 2.457106 3.8037736zm0-.9418868c-1.0418129 0-1.6118615-.7969811-1.6118615-2.8618868v-.9177358c0-2.0649057.5700486-2.8618868 1.6118615-2.8618868 1.041813 0 1.6118616.7969811 1.6118616 2.8618868v.9177358c0 2.0649057-.5700486 2.8618868-1.6118616 2.8618868zm7.7725973.845283v-3.5139623h1.6020336l1.415293 3.5139623h.943528l-1.513577-3.6950943c.864901-.3139623 1.336666-1.0505661 1.336666-2.2218868 0-1.6181132-.904215-2.4150944-2.466935-2.4150944h-2.1622531v8.3320755zm1.3170086-4.455849h-1.3170086v-2.9343397h1.3170086c1.149926 0 1.62169.434717 1.62169 1.4732076 0 1.0264151-.471764 1.4611321-1.62169 1.4611321z" fill="#e35205" fill-rule="nonzero"/></g></svg>