<svg height="109" viewBox="0 0 109 109" width="109" xmlns="http://www.w3.org/2000/svg"><g fill="none" fill-rule="evenodd"><circle cx="54.5" cy="54.5" r="52.5" stroke="#fff" stroke-width="3.78"/><g fill="#fff" transform="translate(23.318182 21.409091)"><path d="m31.1561568 11.8327364c-2.2026136 0-3.9977954-1.7951819-3.9977954-3.99986367 0-2.20261364 1.7951818-3.99572728 3.9977954-3.99572728 2.2046818 0 4.0019318 1.79311364 4.0019318 3.99572728 0 2.20468177-1.79725 3.99986367-4.0019318 3.99986367m0-11.7658864c-4.2790682 0-7.7639545 3.48488636-7.7639545 7.76602273 0 4.28527277 3.4848863 7.76602277 7.7639545 7.76602277 4.2832046 0 7.7680909-3.48075 7.7680909-7.76602277 0-4.28113637-3.4848863-7.76602273-7.7680909-7.76602273"/><path d="m50.7170205 17.0174614c-1.911 0-3.4662728-1.5532046-3.4662728-3.4642046s1.5552728-3.4642045 3.4662728-3.4642045 3.4662727 1.5532045 3.4662727 3.4642045-1.5552727 3.4642046-3.4662727 3.4642046m0-10.58495458c-3.9254091 0-7.1228182 3.19534091-7.1228182 7.12074998 0 3.9295455 3.1974091 7.1269546 7.1228182 7.1269546 3.9274772 0 7.1228181-3.1974091 7.1228181-7.1269546 0-3.92540907-3.1953409-7.12074998-7.1228181-7.12074998"/><path d="m39.634875 38.6444386c0 .1116819-.1034091.2109546-.2130227.2109546h-3.0836591l-2.3825455 21.5628636c0 .1116818-.0992727.2109546-.2150909.2109546h-5.1704545c-.1861364 0-.2150909-.2854091-.2192273-.4157046l-1.9751136-17.72225-.4053637-3.6358636h-3.0795227c-.1075455 0-.2088864-.0992727-.2088864-.2109546l-.0020681-12.8909772c.3474545-4.4962273 3.5676136-4.5479319 3.7061818-4.5479319h9.5467272c1.3815455 0 3.7020455.5749546 3.7020455 4.401091zm15.379-16.5806136h-8.5932955c-.91 0-2.1447045.29575-3.3215 1.0299545-.9658409-4.1032727-4.2583863-5.6585454-7.16625-5.6585454h-9.5467272c-2.0226818 0-5.6585455 1.2698636-6.9904546 5.6564773-1.1767954-.7321364-2.4094318-1.0299546-3.3215-1.0299546h-8.58915906c-3.16225 0-6.85602273 1.9627046-6.85602273 7.4888864v11.7327954c0 1.9151364 1.45186364 3.4952273 3.33804545 3.6855l1.78277273 16.0863182c-.00827273.8913864.36193182 1.7538182 1.03202273 2.4259773.70525.7093864 1.67729545 1.1168182 2.67209091 1.1168182h4.65340907c2.0454318 0 3.7144546-1.6690228 3.7144546-3.6917046l1.3794772-13.1432954-.0041363-.1178864c.0041363-.02275.0062045-.0496364.0062045-.0744545 0-1.0092728-.8210682-1.8262046-1.8303409-1.8262046-.75075 0-1.4125682.4756818-1.6793636 1.1850682l-.0723864-.0124091-.0641136.5604773-.0124091.0599773.0020682.0496363-1.3732728 13.1102046c-.0041363.1716591-.0475681.2378409-.0661818.2378409h-4.65340907c-.02895455 0-.05584091-.02275-.05790909-.0806591l-1.78484091-16.1235455-.37434091-3.38975h-2.89338637c-.02895454 0-.05790909-.0330909-.05790909-.0579091v-11.7327954c0-3.1643182 1.73934091-3.8261364 3.19947728-3.8261364h8.58915906c.0248182 0 2.0102728.0537727 2.8375455 2.3949546v10.5249772c0 2.0867955 1.61525 3.8054546 3.6958409 3.9564319l1.9854545 17.8173863c0 2.1964091 1.7848409 3.98125 3.9771137 3.98125h5.1704545c1.06925 0 2.1136818-.4343182 2.8665-1.1933409.7197273-.7217954 1.1085455-1.6421364 1.1023409-2.5790227l1.9937273-18.0262727c2.0847273-.146841 3.6979091-1.8634319 3.6979091-3.9564319v-9.9127954c.6680227-2.9595682 2.9967954-3.0092046 3.0195454-3.0092046h8.5932955c1.4601364 0 3.1974091.6638864 3.1974091 3.8302728v11.7307272c0 .0248182-.0268864.0579091-.0558409.0579091h-2.8933864l-2.16125 19.5401818c0 .0310228-.0289545.055841-.0579091.055841h-4.6616818c-.0082727-.0062046-.0537727-.0661819-.0599773-.2543864l-1.3691363-13.0895227-.0455-.4260455-.0599773-.2461136-.0413636.0062045c-.2667955-.7073182-.9306819-1.183-1.6835-1.183-.9947955 0-1.8117273.8003864-1.8262046 1.7931137l-.02275.0041363 1.4022273 13.3397727c0 2.0475 1.6648864 3.7144546 3.7123864 3.7144546h4.6554772c.9968637 0 1.9689091-.4053636 2.6741591-1.1168182.6721591-.6700909 1.0340909-1.5304545 1.0299546-2.3928864l1.7848409-16.1173409c1.8861818-.1902727 3.3380454-1.7703636 3.3380454-3.6855v-11.7307272c0-5.5261819-3.6937727-7.4888864-6.8560227-7.4888864z"/><path d="m15.246875 13.5534636c0 1.911-1.5552727 3.4642046-3.4662727 3.4642046-1.91100003 0-3.46627275-1.5532046-3.46627275-3.4642046s1.55527272-3.4642045 3.46627275-3.4642045c1.911 0 3.4662727 1.5532045 3.4662727 3.4642045m-3.4662727-7.12074996c-3.9274773 0-7.12281821 3.19534091-7.12281821 7.12074996 0 3.9274773 3.19534091 7.1248864 7.12281821 7.1248864 3.9254091 0 7.12075-3.1974091 7.12075-7.1248864 0-3.92540905-3.1953409-7.12074996-7.12075-7.12074996"/></g></g></svg>