<svg height="33" viewBox="0 0 32 33" width="32" xmlns="http://www.w3.org/2000/svg"><g fill="none" fill-rule="evenodd" transform="translate(0 .861429)"><path d="m0 0h32v32h-32z" fill="#006a8e"/><path d="m17.900111 16 5.700333 5.700333c.5327413.5327414.5327413 1.3673696 0 1.900111-.5327414.5327413-1.3673696.5327413-1.900111 0l-5.700333-5.700333-5.700333 5.700333c-.53274136.5327413-1.36736955.5327413-1.90011095 0-.5327414-.5327414-.5327414-1.3673696 0-1.900111l5.70033295-5.700333-5.70033295-5.700333c-.5327414-.53274136-.5327414-1.36736955 0-1.90011095s1.36736959-.5327414 1.90011095 0l5.700333 5.70033295 5.700333-5.70033295c.5327414-.5327414 1.3673696-.5327414 1.900111 0 .5327413.5327414.5327413 1.36736959 0 1.90011095z" fill="#fff" fill-rule="nonzero"/></g></svg>