<svg height="171" viewBox="0 0 172 171" width="172" xmlns="http://www.w3.org/2000/svg"><g fill="none" fill-rule="evenodd" stroke="#fff" transform="translate(3.5 3)"><circle cx="82.5" cy="82.5" r="82.5" stroke-width="6"/><path d="m105.508614 120.223012c-.426105-.001906-.857051.148139-1.177598.459771-.295368.307785-.477431.732912-.477431 1.159002 0 .424165.182063.849293.477431 1.159963.311831.308746.721472.471295 1.165008.471295.443537 0 .856083-.177938 1.167914-.471295.296337-.31067.475495-.735798.475495-1.159963 0-.42609-.179158-.851217-.475495-1.159002-.303115-.302975-.728251-.457829-1.155324-.459771zm-.01259-19.591433c-.90644 0-1.642439.729065-1.642439 1.631258v13.051991c0 .903155.735999 1.63222 1.642439 1.63222.90741 0 1.643409-.729065 1.643409-1.63222v-13.051991c0-.902193-.734063-1.631258-1.643409-1.631258zm-36.381588-4.8880041c-.4193257.0317403-.8250935.2202583-1.119493.5636305l-10.2633112 11.8891416-6.2792328-4.674478c-.7282516-.538623-1.7576816-.396273-2.3009651.325097-.5452202.719447-.3989888 1.740907.3273259 2.281453l7.5110626 5.595909c.295368.220258.6401253.325097.9848827.325097.4648414 0 .9248408-.193327 1.2482929-.571325l11.2646571-13.0481427c.5897675-.6838589.5093887-1.7149373-.1791577-2.3016517-.3437889-.2923953-.7737672-.4174328-1.1940614-.3847307zm36.244073-2.9124117c.102652 0 .242105.0355876.336041.194289l19.460393 33.1282018c.093936.159664.052294.299129 0 .388578-.04939.08945-.151074.194289-.33701.194289h-38.9188481c-.1878734 0-.2866522-.104839-.3379784-.194289-.0503578-.089449-.0929683-.228914 0-.388578l19.4603925-33.1282018c.093937-.1606251.234357-.194289.33701-.194289zm0-3.2634785c-1.322861 0-2.509175.6752024-3.177385 1.8101581l-19.4555502 33.1310882c-.6720832 1.14265-.6769253 2.511329-.0135578 3.658789.6653042 1.146497 1.8545235 1.83228 3.1870689 1.83228h38.9188481c1.331577 0 2.523701-.685783 3.1861-1.83228.665305-1.14746.660462-2.514216-.009684-3.658789l-19.459424-33.1310882c-.665304-1.1349557-1.852587-1.8101581-3.176416-1.8101581zm-24.5039219-10.1463115c-.9064407 0-1.6424397.728103-1.6424397 1.6312584 0 .9021936.735999 1.6312583 1.6424397 1.6312583h29.5697249c.909346 0 1.64244-.7290647 1.64244-1.6312583 0-.9031554-.733094-1.6312584-1.64244-1.6312584zm-11.7401511-8.1553298c-.4193257.0317403-.8250935.2241056-1.119493.5674778l-10.2633112 11.8891417-6.2792328-4.6744785c-.7282516-.5405467-1.7576816-.3962726-2.3009651.3250975-.5452202.7194465-.3989888 1.7409066.3273259 2.2814533l7.5110626 5.5987941c.295368.2202583.6401253.3250975.9848827.3250975.4648414 0 .9248408-.1942891 1.2482929-.5703634l11.2646571-13.0529522c.5917044-.682897.5093887-1.7130136-.1791577-2.3006898-.3437889-.2923953-.7737672-.4203183-1.1940614-.388578zm11.7401511-14.687096c-.9064407 0-1.6424397.7290647-1.6424397 1.6312583s.735999 1.6312583 1.6424397 1.6312583h29.5697249c.909346 0 1.64244-.7290647 1.64244-1.6312583s-.733094-1.6312583-1.64244-1.6312583zm-11.7401511-8.1543681c-.4193257.0307785-.8250935.2241057-1.119493.566516l-10.2633112 11.8891417-6.2792328-4.6744784c-.7282516-.5405467-1.7576816-.3962727-2.3009651.3250974-.5452202.7194465-.3989888 1.7418685.3273259 2.2814533l7.5110626 5.5997559c.295368.2202584.6401253.3250975.9848827.3250975.4648414 0 .9248408-.194289 1.2482929-.5713251l11.2646571-13.0529522c.5917044-.6828971.5093887-1.7130136-.1791577-2.3006898-.3437889-.2923954-.7737672-.4203184-1.1940614-.3876163zm56.094738 8.4409925c0-10.954246-8.972408-19.8655718-20.001739-19.8655718h-48.7018224c-11.0293311 0-20.0056126 8.9113258-20.0056126 19.8655718v48.3741192c0 10.954246 8.9762815 19.865572 20.0056126 19.865572h21.0631267c.9074092 0 1.6434081-.730026 1.6434081-1.63222s-.7350304-1.631258-1.6434081-1.631258h-21.0631267c-9.2183864 0-16.7197648-7.446464-16.7197648-16.602094v-48.3741192c0-9.1565916 7.5013784-16.6030551 16.7197648-16.6030551h48.7018224c9.217418 0 16.715891 7.4464635 16.715891 16.6030551v45.5280742c0 .902193.735031 1.631258 1.64244 1.631258.909346 0 1.643408-.729065 1.643408-1.631258z" fill="#fff" stroke-width="2"/></g></svg>