<svg height="172" viewBox="0 0 172 172" width="172" xmlns="http://www.w3.org/2000/svg"><g fill="none" fill-rule="evenodd" transform="translate(3 3.5)"><circle cx="83" cy="82.5" r="82.5" stroke="#fff" stroke-width="6"/><path d="m42.8275388 128.00002c0 1.6569 1.3432 3 3 3 1.6569 0 3-1.3431 3-3v-41h20v9c.0002 1.5707 1.4292 2.9998 3 3h48.0000002c1.1232.0005 2.2186-.688 2.7053-1.7003s.3403-2.2978-.3615-3.1747l-14.5-18.12504 14.5-18.125c.7018-.87694.8482-2.16246.3615-3.17474-.4867-1.01227-1.5821-1.70075-2.7053-1.70026h-29.0000002v-7c-.0002-1.57075-1.4292-2.99984-3-3h-39v-1c0-1.6569-1.3431-3-3-3-1.6568 0-3 1.3431-3 3zm6-79.00004h36v32h-36zm42 10h22.7500002l-12.0938 15.125c-.8438 1.0541-.8438 2.6959 0 3.75l12.0938 15.12504h-38.7500002v-6h13c1.5708-.0002 2.9998-1.4293 3-3z" fill="#fff" fill-rule="nonzero"/></g></svg>