<svg width="200" height="200" xmlns="http://www.w3.org/2000/svg"><g fill="none" fill-rule="evenodd"><circle fill="#8D4E7B" cx="100" cy="100" r="100"/><g fill="#FFF"><path d="M99.253 178.44c-42.839 0-77.688-34.862-77.688-77.7 0-42.846 34.85-77.704 77.688-77.704 42.836 0 77.681 34.858 77.681 77.703 0 42.839-34.845 77.7-77.68 77.7m0-162.964c-47.013 0-85.256 38.252-85.256 85.264 0 47.01 38.243 85.261 85.255 85.261 47.01 0 85.248-38.252 85.248-85.26 0-47.013-38.239-85.265-85.248-85.265"/><path d="M86.42 63.513c-5.666 9.321-7.85 22.624-8.662 30.344-4.54-1.9-9.801-2.196-12.61-2.196-3.365 0-6.596.393-9.423 1.136 4.81-14.038 16.43-25.112 30.694-29.284m56.845 29.28c-2.83-.742-6.058-1.132-9.415-1.132-2.817 0-8.085.296-12.621 2.203-.84-7.695-3.083-20.972-8.95-30.358 14.41 4.175 26.14 15.246 30.986 29.287m-29.353.91c-5.33-1.768-11.387-2.042-14.622-2.042-5.376 0-10.378.696-14.204 1.969 2.29-20.024 8.975-31.963 14.204-31.963 5.276 0 12.304 12.224 14.622 32.035m-10.994-39.157v-2.917A3.63 3.63 0 0 0 99.289 48a3.635 3.635 0 0 0-3.628 3.628v2.917C71.112 56.207 51.07 74.179 46.808 98.437a6.31 6.31 0 0 0-.808 3.061 3.623 3.623 0 0 0 3.624 3.628c1.446 0 3.714-1.075 4.01-3.375l.047-.329c1.334-.926 5.2-2.498 11.467-2.498 7.424 0 11.297 2.145 11.9 2.87.144 1.644 1.478 3.339 3.764 3.339 1.864 0 3.408-1.4 3.606-3.245 1.204-.942 5.092-2.406 11.243-2.842v43.016a5.687 5.687 0 0 1-5.683 5.68c-3.133 0-5.686-2.547-5.686-5.68v-3.105a3.631 3.631 0 0 0-3.628-3.631 3.633 3.633 0 0 0-3.624 3.631v3.105c0 7.14 5.806 12.938 12.938 12.938 7.14 0 12.939-5.798 12.939-12.938v-43.02c6.339.43 10.392 1.937 11.669 2.889.22 1.868 1.85 3.263 3.771 3.202 2.204-.105 3.455-1.73 3.588-3.34.606-.724 4.493-2.87 11.904-2.87 6.263 0 10.125 1.573 11.463 2.5l.054.367c.296 2.304 2.52 3.336 4 3.336a3.627 3.627 0 0 0 3.634-3.628c0-.728-.148-1.846-.811-3.061-4.216-23.865-24.882-42.244-49.272-43.892"/></g></g></svg>