<svg height="95" width="95" xmlns="http://www.w3.org/2000/svg" xmlns:xlink="http://www.w3.org/1999/xlink"><mask id="a" fill="#fff"><path d="m0 .418h94.582v94.57h-94.582z" fill="#fff" fill-rule="evenodd"/></mask><g fill="#fff" fill-rule="evenodd"><path d="m47.29 90.796c-23.762 0-43.095-19.333-43.095-43.094 0-23.76 19.333-43.09 43.095-43.09 23.764 0 43.096 19.33 43.096 43.09s-19.332 43.094-43.096 43.094m0-90.378c-26.075 0-47.29 21.214-47.29 47.284 0 26.073 21.215 47.287 47.29 47.287 26.077 0 47.293-21.214 47.293-47.287 0-26.07-21.216-47.284-47.293-47.284" mask="url(#a)"/><path d="m51.33 46.117h-6.632c-2.718 0-4.916-2.155-4.916-4.819 0-2.665 2.198-4.817 4.916-4.817h11.729c1.306 0 2.377-1.052 2.377-2.332 0-1.283-1.071-2.332-2.377-2.332h-6.037v-4.485c0-1.283-1.07-2.332-2.378-2.332-1.304 0-2.378 1.049-2.378 2.332v4.51h-.968c-5.33 0-9.667 4.252-9.667 9.482.026 5.203 4.365 9.455 9.667 9.455h6.637c2.719 0 4.912 2.154 4.912 4.817 0 2.666-2.193 4.817-4.912 4.817h-11.94c-1.308 0-2.38 1.055-2.38 2.334 0 1.284 1.072 2.334 2.38 2.334h6.247v4.585c0 1.285 1.067 2.334 2.378 2.334 1.304 0 2.376-1.049 2.376-2.334v-4.585h.966c5.333 0 9.669-4.256 9.669-9.485 0-5.222-4.336-9.479-9.67-9.479"/><path d="m47 79.549c-17.366 0-31.497-13.927-31.497-31.051 0-17.118 14.13-31.047 31.497-31.047 17.368 0 31.497 13.929 31.497 31.047 0 17.124-14.129 31.05-31.497 31.05m0-65.548c-19.298 0-35 15.476-35 34.498 0 19.028 15.702 34.502 35 34.502 19.3 0 35-15.474 35-34.502 0-19.022-15.7-34.498-35-34.498"/></g></svg>