<svg height="171" viewBox="0 0 172 171" width="172" xmlns="http://www.w3.org/2000/svg" xmlns:xlink="http://www.w3.org/1999/xlink"><mask id="a" fill="#fff"><path d="m0 0h68.591952v91.999952h-68.591952z" fill="#fff" fill-rule="evenodd"/></mask><g fill="none" fill-rule="evenodd"><circle cx="86" cy="85.5" r="82.5" stroke="#fff" stroke-width="6"/><path d="m62.031952 29.158512c0 .1392-.04032.27536-.11616.392-.2024.312-.5864.6336-.8728.84848-1.30528.96672-4.57472 2.77744-11.84496 4.06976-4.46304.80272-9.61376 1.2272-14.89408 1.2272-5.18896 0-10.33888-.42432-14.89296-1.22704-8.2896-1.4736-11.88048-3.74768-12.69568-4.8592-.13616-.1856-.17392-.42272-.10736-.63824v-6.96448c0-.24272.1224-.46928.3256-.60224.20304-.13312.45952-.15472.68224-.05776 2.84896 1.2424 6.52752 2.28528 10.63824 3.016 4.88144.8616 10.42624 1.31696 16.03392 1.31696 5.59664 0 11.1528-.45552 16.06768-1.31728 4.16-.73952 7.84896-1.78512 10.66656-3.02352.22272-.09792.47968-.0768.68336.05616.20352.13296.3264.35984.3264.60304zm0 16.576v.01856.01872.00416c0 .14768-.04544.29184-.13008.4128-.01216.01728-.02576.03488-.03952.05136-.03792.04544-.08064.08512-.12672.11888-1.00384 1.1304-4.61168 3.28464-12.55328 4.7016-4.46048.8024-9.60816 1.22672-14.88528 1.2272-5.1872-.00032-10.33472-.42448-14.88608-1.22688-1.53376-.27264-2.98368-.58656-4.3104-.93344l-.06368-.01648c-.16736-.04384-.33536-.0896-.5016-.13536l-.1488-.04112c-.14016-.0392-.27696-.07856-.41248-.11792l-.21168-.06192c-.1144-.03424-.2256-.06784-.33584-.10176-.09664-.02976-.17904-.05504-.26-.0808-.09184-.0288-.18208-.05776-.27152-.08688-.09904-.032-.1968-.064-.2928-.09616-.07392-.02464-.14736-.0496-.21984-.07424-.10752-.0368-.21328-.0736-.31712-.11024l-.17152-.06112c-.116-.04208-.22736-.08288-.33632-.12384l-.13376-.05008c-.11808-.0448-.23264-.0896-.34496-.13408l-.10016-.03968c-.12096-.04848-.23664-.09616-.35008-.14368l-.07456-.03104c-.1208-.05104-.23648-.10128-.34944-.15136l-.05584-.02448c-.1136-.05056-.22752-.10272-.3384-.15456l-.01568-.00736c-.00128-.00048-.01552-.0072-.0168-.00768-.11712-.0552-.22688-.10816-.33328-.16064l.30384-.65296-.32464.64288c-.11168-.05552-.21552-.10848-.31616-.16096l-.01392-.00704c-.10352-.05408-.19776-.10512-.28912-.15536l-.02208-.01184c-.05616-.0312-.10704-.06016-.15776-.08928l-.03456-.01984c-.8968-.51504-1.56224-1.0328-1.87472-1.45888-.13616-.1856-.17392-.42288-.10736-.63808v-6.98064c0-.24288.1224-.46928.3256-.6024.20304-.13296.45952-.15456.68224-.0576 2.8488 1.24224 6.52752 2.28528 10.63824 3.016 4.88256.8616 10.4272 1.31696 16.03392 1.31696h.032c5.6808 0 11.22496-.45536 16.03312-1.3168 4.1968-.7472 7.88544-1.792 10.66784-3.02176.22288-.09856.48016-.07744.684.0552.204.1328.32704.35984.32704.60336zm0 16.5488v.00592.00592.05664c0 .15456-.04976.30512-.14176.42912-.01152.01552-.02512.03248-.03904.04944-.05264.06352-.11456.11632-.18256.15776-.468.49856-1.42048 1.18432-2.97728 1.90624-2.42544 1.12464-5.62992 2.04736-9.5248 2.7424-4.45824.80176-9.60304 1.22624-14.87712 1.2272-5.18544-.00096-10.33024-.42528-14.8784-1.22688-8.2896-1.47376-11.88048-3.748-12.69568-4.85936-.13616-.18576-.17392-.42288-.10736-.63824v-6.98048c0-.24272.1224-.46928.3256-.60224.20304-.13312.45952-.15472.68224-.05776 2.84864 1.24224 6.52672 2.28512 10.63728 3.01584 4.88208.8616 10.42688 1.31696 16.03488 1.31696h.032c5.6808 0 11.22496-.4552 16.03312-1.31664 4.1968-.7472 7.88544-1.792 10.66784-3.02192.22288-.09824.48-.07744.684.05536s.32704.35984.32704.6032zm-.032 16.64464c0 .15136-.04768.29888-.13632.4216-.70368.97424-3.26688 2.57344-8.1752 3.8744-5.37504 1.42896-12.26512 2.216-19.40048 2.216s-14.02528-.78704-19.40096-2.21616c-4.90784-1.3008-7.47104-2.9-8.17472-3.87424-.08864-.12272-.13632-.27024-.13632-.4216v-7.2c0-.24272.1224-.46944.3256-.6024s.45952-.15456.6824-.05744c.91312.3984 1.92816.7824 3.01728 1.14096l.18368.05952c.14544.0472.29232.0944.44112.14112.15264.04784.30656.09504.4616.14192l.11088.03312c1.97488.59248 4.14672 1.10448 6.4576 1.52272 4.87904.86096 10.42384 1.31648 16.03184 1.31648 5.6384 0 11.1824-.4608 16.03264-1.33248.28656-.0512.56928-.10368.85008-.15728l.31424-.06128c.17968-.03504.3592-.07056.53744-.10688l.31904-.06608c.18416-.0384.3672-.07744.54928-.11712l.26256-.0576c.22656-.05056.45136-.10208.6744-.1544l.1128-.02624c2.28528-.54096 4.33808-1.17296 6.10288-1.87904l.04416-.01792c.17632-.07088.35008-.1424.52096-.21488.08336-.0352.16528-.07072.24736-.1064l.13456-.0576c.22272-.0976.47968-.07664.6832.05648.20368.1328.3264.35968.3264.60272zm-55.0184-66.60784c.46528-.46432 2.41072-2.09344 7.90464-3.55984l.0008-.00016c5.37568-1.42912 12.2656-2.21616 19.40096-2.21616s14.02544.78704 19.40096 2.21616c5.49472 1.46656 7.44016 3.09568 7.9056 3.56.13584.13568.2113623.32.2113623.51184-.0006423.19216-.0777623.37584-.2145623.51056-.38464.3792-1.5896 1.37872-4.46512 2.46912l-.11536.04304c-.10848.04048-.21872.08112-.33152.12176l-.20112.07136c-.08768.03088-.1768.06192-.26752.09312-.0832.02848-.16704.0568-.252.08512-.0776.02592-.1568.05184-.23616.0776-.09808.03184-.1968.06384-.29792.09584l-.1968.06112c-.1224.03792-.23776.0736-.35696.10912l-.09552.028c-.49504.14656-1.01136.2888-1.53424.42256l-.0632.01648c-.15968.04064-.32416.08112-.48976.12144l-.15376.03744c-.15632.0376-.31568.07488-.47696.112l-.19728.04496c-.15568.03536-.31296.07008-.4728.1048l-.24064.05136c-.1528.03248-.30672.06496-.464.09696l-.37232.07408c-.12.02384-.23984.04768-.36256.0712-.25072.04784-.5048.0952-.76544.14176-4.47968.80272-9.63024 1.2272-14.8944 1.2272-5.18944 0-10.33936-.42432-14.89296-1.22704-4.6016-.82112-10.27712-2.44752-12.4104-4.5504-.13664-.13472-.21392-.3184-.21456226-.51056 0-.19184.07552226-.37616.21152226-.51184zm61.5624 66.83168v-16.10576c0-.01584.00064-.03184.0016-.04768.0096-.14384.0144-.28592.0144-.4224v-33.152c0-.00768 0-.01536 0-.02128v-15.88224c0-.02272.00112-.04544.00336-.06832.01888-.2.02864-.40336.02864-.60416 0-1.64976-.65664-4.09552-3.78448-6.3784-1.83696-1.3472-4.39744-2.53296-7.612-3.5256-6.15392-1.89856-14.28368-2.944-22.89152-2.944-8.60768 0-16.73744 1.04544-22.89168 2.944-3.1664.97312-5.72784 2.15968-7.6136 3.52688-3.11936 2.27664-3.77888 4.7168-3.78256 6.36272l-.00016 49.7424c0 .05184-.00544.10256-.016.15136v16.42448c0 1.64992.65664 4.09568 3.78448 6.37856 1.8368 1.34704 4.39744 2.53296 7.612 3.5256 6.15424 1.8984 14.284 2.944 22.89152 2.944 8.61856 0 16.73664-1.04544 22.85888-2.94368 3.1672-.97344 5.72848-2.16 7.61456-3.52736 3.12608-2.28144 3.78256-4.7272 3.78256-6.37712z" fill="#fff" mask="url(#a)" transform="translate(50 42)"/></g></svg>