<svg height="109" viewBox="0 0 110 109" width="110" xmlns="http://www.w3.org/2000/svg"><g fill="none" fill-rule="evenodd"><circle cx="54.636364" cy="54.5" r="52.5" stroke="#fff" stroke-width="3.818182"/><g fill="#fff" transform="translate(33 28.727273)"><path d="m32.9496438 10.2871993v-4.47201378l4.4229537 4.47201378zm-.2008661 3.3520386h6.9679073v35.1273923h-36.22609728v-45.31956134h26.14574108v7.04519634c0 1.7351729 1.3963117 3.1469727 3.1124489 3.1469727zm10.277322-1.7489754c-.0175514-.4219625-.187215-.81632-.4816885-1.1120881l-10.0803562-10.19019725c-.312025-.31745777-.7274082-.49294685-1.1700936-.49294685h-28.00423975c-1.71613725 0-3.11244892 1.41179977-3.11244892 3.14697267v45.72574953c0 1.7371447 1.39631167 3.1489445 3.11244892 3.1489445h36.62782945c1.7161372 0 3.1124489-1.4117998 3.1124489-3.1489445v-37.0005903z"/><path d="m33.2658909 19.7476599h-23.32450908c-.91526061 0-1.65683637.7777224-1.65683637 1.7350762 0 .9553126.74157576 1.7330349 1.65683637 1.7330349h23.32450908c.9152606 0 1.6568364-.7777223 1.6568364-1.7330349 0-.9573538-.7415758-1.7350762-1.6568364-1.7350762"/><path d="m33.2658909 28.9959562h-23.32450908c-.91526061 0-1.65683637.7813451-1.65683637 1.7360956 0 .9527106.74157576 1.7320155 1.65683637 1.7320155h23.32450908c.9152606 0 1.6568364-.7793049 1.6568364-1.7320155 0-.9547505-.7415758-1.7360956-1.6568364-1.7360956"/><path d="m33.2658909 37.0882155h-23.32450908c-.91526061 0-1.65683637.779305-1.65683637 1.7360956 0 .9527105.74157576 1.7320155 1.65683637 1.7320155h23.32450908c.9152606 0 1.6568364-.779305 1.6568364-1.7320155 0-.9567906-.7415758-1.7360956-1.6568364-1.7360956"/></g></g></svg>