<svg height="171" viewBox="0 0 172 171" width="172" xmlns="http://www.w3.org/2000/svg"><g fill="none" fill-rule="evenodd"><circle cx="86" cy="85.5" r="82.5" stroke="#fff" stroke-width="6"/><g fill="#fff" transform="translate(52 45)"><path d="m51.7780117 16.1655989v-7.02745023l6.9503559 7.02745023zm-.3156467 5.2674892h10.9495686v55.2001879h-56.92672433v-71.2164535h41.08616453v11.0710228c0 2.7267003 2.1942041 4.9452428 4.8909912 4.9452428zm16.1500774-2.7483899c-.0275808-.663084-.294195-1.2827886-.7569391-1.747567l-15.8405598-16.01316711c-.4903249-.49886221-1.14307-.77463076-1.8387185-.77463076h-44.0066624c-2.69678711 0-4.89099117 2.2185425-4.89099117 4.94524277v71.8547493c0 2.7297988 2.19420406 4.9483413 4.89099117 4.9483413h57.5580177c2.6967871 0 4.8909911-2.2185425 4.8909911-4.9483413v-58.1437848z"/><path d="m52.2749714 31.032037h-36.6528c-1.4382666 0-2.6036 1.2221352-2.6036 2.7265483 0 1.5012054 1.1653334 2.7233406 2.6036 2.7233406h36.6528c1.4382667 0 2.6036-1.2221352 2.6036-2.7233406 0-1.5044131-1.1653333-2.7265483-2.6036-2.7265483"/><path d="m52.2749714 45.5650741h-36.6528c-1.4382666 0-2.6036 1.2278279-2.6036 2.7281502 0 1.4971166 1.1653334 2.7217387 2.6036 2.7217387h36.6528c1.4382667 0 2.6036-1.2246221 2.6036-2.7217387 0-1.5003223-1.1653333-2.7281502-2.6036-2.7281502"/><path d="m52.2749714 58.2814815h-36.6528c-1.4382666 0-2.6036 1.2246221-2.6036 2.7281502 0 1.4971166 1.1653334 2.7217387 2.6036 2.7217387h36.6528c1.4382667 0 2.6036-1.2246221 2.6036-2.7217387 0-1.5035281-1.1653333-2.7281502-2.6036-2.7281502"/></g></g></svg>