<svg height="171" viewBox="0 0 172 171" width="172" xmlns="http://www.w3.org/2000/svg"><g fill="none" fill-rule="evenodd"><circle cx="86" cy="85.5" r="82.5" stroke="#fff" stroke-width="6"/><g fill="#fff" transform="translate(37 33.5)"><path d="m48.959675 18.5943c-3.46125 0-6.28225-2.821-6.28225-6.2855 0-3.46125 2.821-6.279 6.28225-6.279 3.4645 0 6.28875 2.81775 6.28875 6.279 0 3.4645-2.82425 6.2855-6.28875 6.2855m0-18.48925c-6.72425 0-12.2005 5.47625-12.2005 12.20375 0 6.734 5.47625 12.20375 12.2005 12.20375 6.73075 0 12.207-5.46975 12.207-12.20375 0-6.7275-5.47625-12.20375-12.207-12.20375"/><path d="m79.698175 26.741725c-3.003 0-5.447-2.44075-5.447-5.44375s2.444-5.44375 5.447-5.44375 5.447 2.44075 5.447 5.44375-2.444 5.44375-5.447 5.44375m0-16.6335c-6.1685 0-11.193 5.02125-11.193 11.18975 0 6.175 5.0245 11.1995 11.193 11.1995 6.17175 0 11.193-5.0245 11.193-11.1995 0-6.1685-5.02125-11.18975-11.193-11.18975"/><path d="m62.283375 60.726975c0 .1755-.1625.3315-.33475.3315h-4.84575l-3.744 33.8845c0 .1755-.156.3315-.338.3315h-8.125c-.2925 0-.338-.4485-.3445-.65325l-3.10375-27.84925-.637-5.7135h-4.83925c-.169 0-.32825-.156-.32825-.3315l-.00325-20.25725c.546-7.0655 5.60625-7.14675 5.824-7.14675h15.002c2.171 0 5.8175.9035 5.8175 6.916zm24.167-26.05525h-13.50375c-1.43 0-3.37025.46475-5.2195 1.6185-1.51775-6.448-6.69175-8.892-11.26125-8.892h-15.002c-3.1785 0-8.892 1.9955-10.985 8.88875-1.84925-1.1505-3.78625-1.6185-5.2195-1.6185h-13.49725c-4.96925 0-10.77375 3.08425-10.77375 11.76825v18.43725c0 3.0095 2.2815 5.4925 5.2455 5.7915l2.8015 25.2785c-.013 1.40075.56875 2.756 1.62175 3.81225 1.10825 1.11475 2.63575 1.755 4.199 1.755h7.3125c3.21425 0 5.837-2.62275 5.837-5.80125l2.16775-20.65375-.0065-.18525c.0065-.03575.00975-.078.00975-.117 0-1.586-1.29025-2.86975-2.87625-2.86975-1.17975 0-2.21975.7475-2.639 1.86225l-.11375-.0195-.10075.88075-.0195.09425.00325.078-2.158 20.60175c-.0065.26975-.07475.37375-.104.37375h-7.3125c-.0455 0-.08775-.03575-.091-.12675l-2.80475-25.337-.58825-5.32675h-4.54675c-.0455 0-.091-.052-.091-.091v-18.43725c0-4.9725 2.73325-6.0125 5.02775-6.0125h13.49725c.039 0 3.159.0845 4.459 3.7635v16.53925c0 3.27925 2.53825 5.98 5.80775 6.21725l3.12 27.99875c0 3.4515 2.80475 6.25625 6.24975 6.25625h8.125c1.68025 0 3.3215-.6825 4.5045-1.87525 1.131-1.13425 1.742-2.5805 1.73225-4.05275l3.133-28.327c3.276-.23075 5.811-2.92825 5.811-6.21725v-15.57725c1.04975-4.65075 4.70925-4.72875 4.745-4.72875h13.50375c2.2945 0 5.0245 1.04325 5.0245 6.019v18.434c0 .039-.04225.091-.08775.091h-4.54675l-3.39625 30.706c0 .04875-.0455.08775-.091.08775h-7.3255c-.013-.00975-.0845-.104-.09425-.39975l-2.1515-20.56925-.0715-.6695-.09425-.38675-.065.00975c-.41925-1.1115-1.4625-1.859-2.6455-1.859-1.56325 0-2.847 1.25775-2.86975 2.81775l-.03575.0065 2.2035 20.9625c0 3.2175 2.61625 5.837 5.83375 5.837h7.31575c1.5665 0 3.094-.637 4.20225-1.755 1.05625-1.053 1.625-2.405 1.6185-3.76025l2.80475-25.32725c2.964-.299 5.2455-2.782 5.2455-5.7915v-18.434c0-8.684-5.8045-11.76825-10.77375-11.76825z"/><path d="m23.959375 21.2983c0 3.003-2.444 5.44375-5.447 5.44375s-5.447-2.44075-5.447-5.44375 2.444-5.44375 5.447-5.44375 5.447 2.44075 5.447 5.44375m-5.447-11.18975c-6.17175 0-11.193 5.02125-11.193 11.18975 0 6.17175 5.02125 11.19625 11.193 11.19625 6.1685 0 11.18975-5.0245 11.18975-11.19625 0-6.1685-5.02125-11.18975-11.18975-11.18975"/></g></g></svg>