<svg height="109" viewBox="0 0 109 109" width="109" xmlns="http://www.w3.org/2000/svg"><g fill="none" fill-rule="evenodd" stroke="#fff" transform="translate(2 2)"><circle cx="52.5" cy="52.5" r="52.5" stroke-width="3.78"/><path d="m67.1418452 76.505553c-.2711575-.0012126-.5453963.0942706-.7493807.2925818-.1879615.1958629-.3038197.4663986-.3038197.7375463 0 .2699236.1158582.5404593.3038197.7381584.198438.196475.4591189.2999151.7413692.2999151s.5447801-.1132332.7432181-.2999151c.1885777-.1976991.3025871-.4682348.3025871-.7381584 0-.2711477-.1140094-.5416834-.3025871-.7375463-.1928916-.1928025-.4634328-.2913461-.7352066-.2925818zm-.0080115-12.4672755c-.5768259 0-1.0451889.4639503-1.0451889 1.0380735v8.305812c0 .5747353.468363 1.0386856 1.0451889 1.0386856.5774422 0 1.0458052-.4639503 1.0458052-1.0386856v-8.305812c0-.5741232-.4671304-1.0380735-1.0458052-1.0380735zm-23.1519199-3.110548c-.2668436.0201983-.5250595.1401644-.7124046.358674l-6.5311981 7.5658174-3.9958754-2.9746681c-.4634328-.3427601-1.1185247-.2521735-1.4642505.2068802-.3469583.4578296-.253902 1.1078496.2082983 1.4518339l4.7797671 3.5610327c.1879614.1401644.4073525.2068803.6267436.2068803.2958081 0 .588535-.1230264.7943682-.3635706l7.1684181-8.3033638c.3753066-.4351829.3241565-1.0913237-.1140094-1.4646874-.2187748-.1860697-.4923974-.2656391-.7598573-.2448286zm23.06441-1.8533529c.0653243 0 .1540668.0226466.2138447.1236384l12.383886 21.0815833c.0597779.1016039.0332784.1903542 0 .2472769-.0314296.0569227-.0961377.1236385-.2144609.1236385h-24.7665395c-.1195559 0-.1824151-.0667158-.2150772-.1236385-.0320459-.0569227-.0591617-.145673 0-.2472769l12.383886-21.0815833c.0597779-.1022159.1491366-.1236384.2144609-.1236384zm0-2.0767591c-.8418208 0-1.5967479.4296743-2.0219721 1.1519188l-12.3808047 21.0834195c-.4276893.7271411-.4307707 1.598119-.0086277 2.3283205.4233754.7295894 1.1801513 1.1659964 2.0281348 1.1659964h24.7665395c.8473671 0 1.6059918-.436407 2.0275185-1.1659964.4233754-.7302015.4202941-1.5999553-.0061627-2.3283205l-12.3832697-21.0834195c-.4233755-.7222445-1.1789189-1.1519188-2.0213559-1.1519188zm-15.5934047-6.4567436c-.576826 0-1.0451889.4633382-1.0451889 1.0380735 0 .5741232.4683629 1.0380735 1.0451889 1.0380735h18.8170976c.5786747 0 1.0451888-.4639503 1.0451888-1.0380735 0-.5747353-.4665141-1.0380735-1.0451888-1.0380735zm-7.4710053-5.1897554c-.2668436.0201984-.5250595.1426127-.7124046.3611223l-6.5311981 7.5658174-3.9958754-2.9746681c-.4634328-.3439843-1.1185247-.2521735-1.4642505.2068802-.3469583.4578296-.253902 1.1078497.2082983 1.4518339l4.7797671 3.562869c.1879614.1401644.4073525.2068802.6267436.2068802.2958081 0 .588535-.1236385.7943682-.3629585l7.1684181-8.3064241c.3765392-.4345709.3241565-1.0900996-.1140094-1.4640753-.2187748-.1860698-.4923974-.2674754-.7598573-.247277zm7.4710053-9.3463338c-.576826 0-1.0451889.4639503-1.0451889 1.0380735s.4683629 1.0380735 1.0451889 1.0380735h18.8170976c.5786747 0 1.0451888-.4639503 1.0451888-1.0380735s-.4665141-1.0380735-1.0451888-1.0380735zm-7.4710053-5.1891433c-.2668436.0195863-.5250595.1426127-.7124046.3605102l-6.5311981 7.5658174-3.9958754-2.9746681c-.4634328-.3439843-1.1185247-.2521735-1.4642505.2068802-.3469583.4578296-.253902 1.1084617.2082983 1.4518339l4.7797671 3.5634811c.1879614.1401644.4073525.2068802.6267436.2068802.2958081 0 .588535-.1236385.7943682-.3635706l7.1684181-8.3064241c.3765392-.4345709.3241565-1.0900996-.1140094-1.4640753-.2187748-.1860698-.4923974-.2674753-.7598573-.2466649zm35.6966516 5.3715406c0-6.9708838-5.709714-12.6417275-12.7283793-12.6417275h-30.992069c-7.0186652 0-12.7308444 5.6708437-12.7308444 12.6417275v30.7835307c0 6.9708838 5.7121792 12.6417275 12.7308444 12.6417275h13.4038079c.5774423 0 1.0458052-.4645624 1.0458052-1.0386856s-.4677467-1.0380735-1.0458052-1.0380735h-13.4038079c-5.8662459 0-10.6398503-4.7386585-10.6398503-10.5649684v-30.7835307c0-5.8269219 4.7736044-10.5655805 10.6398503-10.5655805h30.992069c5.8656297 0 10.6373853 4.7386586 10.6373853 10.5655805v28.9724107c0 .5741232.4677467 1.0380735 1.0451889 1.0380735.5786747 0 1.0458051-.4639503 1.0458051-1.0380735z" fill="#fff"/></g></svg>