<svg height="109" viewBox="0 0 109 109" width="109" xmlns="http://www.w3.org/2000/svg"><g fill="none" fill-rule="evenodd"><circle cx="54.5" cy="54.5" r="52.5" stroke="#fff" stroke-width="3.78"/><g transform="translate(28.409091 20.136364)"><path d="m15.2220123 26.2670823c-6.27027408 0-11.38069468-5.1104206-11.38069468-11.3865823 0-6.27027416 5.1104206-11.37480718 11.38069468-11.37480718 6.2761617 0 11.3924699 5.10453302 11.3924699 11.37480718 0 6.2761617-5.1163082 11.3865823-11.3924699 11.3865823m.0019581-26.1400673c-8.13022946 0-14.75151347 6.62128401-14.75151347 14.755443 0 8.1420181 6.62128401 14.755443 14.75151347 14.755443 8.1380885 0 14.7593725-6.6134249 14.7593725-14.755443 0-8.13415899-6.621284-14.755443-14.7593725-14.755443" fill="#fff" transform="translate(6.404374)"/><g stroke="#fff"><path d="m57.9314393 38.7700452-1.5661309-1.5661309c-.8274829-.828404-1.9503436-1.293874-3.1212327-1.293874-1.170889 0-2.2937497.46547-3.1212327 1.293874l-20.5471961 20.5471962c-.0770538.0852353-.1403151.1819879-.1874946.2867564v.0772036l-3.1984363 9.4298726c-.1337517.3958263-.0323499.8332486.2619187 1.1298526.2942685.296604.7308756.4014604 1.1277467.270842l9.3636981-3.1212327h.0661746c.1008799-.0481636.1938512-.1113841.2757272-.1874946l20.646458-20.6243998c.8284041-.8274829 1.2938741-1.9503436 1.2938741-3.1212327 0-1.170889-.46547-2.2937497-1.2938741-3.1212327zm-28.9513633 27.3852325 1.8639163-5.5807199 3.7168036 3.7168036zm27.3852324-22.708898-19.7641307 19.7751599-2.3381672-2.3491964-2.3381673-2.3381672 19.7641307-19.7641308c.4137415-.414202.9751718-.646937 1.5606164-.646937.5854445 0 1.1468749.232735 1.5606163.646937l1.5551018 1.5551018c.414202.4137415.6469371.9751718.6469371 1.5606164 0 .5854445-.2327351 1.1468749-.6469371 1.5606163z" fill="#fff" fill-rule="nonzero"/><path d="m28.980076 52.4554948c-7.8903721 0-17.5503974 0-28.980076 0 0-9.8776364 3.41523066-15.6581203 10.245692-17.3414517h24.3151039c1.8269214 0 5.5738722 2.8476108 6.5818033 5.1514449" stroke-linecap="round" stroke-linejoin="round" stroke-width="3.78"/></g></g></g></svg>